<?xml version="1.0" encoding="UTF-8" standalone="no"?>
<!DOCTYPE svg PUBLIC "-//W3C//DTD SVG 1.0//EN" "http://www.w3.org/TR/2001/REC-SVG-20010904/DTD/svg10.dtd">
<svg
   xmlns:svg="http://www.w3.org/2000/svg"
   xmlns="http://www.w3.org/2000/svg"
   version="1.0"
   width="100%"
   height="100%"
   viewBox="0 0 150 105"
   id="svg2">
  <defs
     id="defs4" />
  <g
     transform="translate(1.7865006,2.2152775)"
     id="g3250">
    <path
       d="M 145.10358,1.1876994 L 145.046,42.355579 C 144.31244,58.28262 128.63232,71.379839 112.42496,72.959767 L 52.758772,72.942388 L 52.758772,1.2212128"
       id="path3175"
       style="fill:#ffdd00;fill-opacity:1;stroke:none;stroke-width:4;stroke-linecap:square;stroke-linejoin:miter;stroke-miterlimit:0;stroke-dashoffset:4.3;stroke-opacity:1" />
    <path
       d="M 48.093155,72.962087 L 48.126664,1.1590104 L 32.458864,1.2165867 C 16.531817,1.9501495 2.9033517,15.151092 1.3234188,31.358449 L 1.3408027,72.962087 L 48.093155,72.962087 z"
       id="path2396"
       style="fill:#231f20;fill-opacity:1;stroke:none;stroke-width:4;stroke-linecap:square;stroke-linejoin:miter;stroke-miterlimit:0;stroke-dashoffset:4.3;stroke-opacity:1" />
    <path
       d="M 69.133255,17.568673 C 61.639466,17.616809 59.60463,19.559559 57.512127,21.364908 L 57.605096,51.641821 C 59.493156,51.641821 64.347275,51.688305 69.613595,51.688305 C 79.278918,51.854003 83.306391,47.677051 83.373011,42.778774 C 83.418063,35.850261 79.015233,34.511482 76.145074,34.175708 C 79.127237,33.98853 82.39225,32.581524 82.350352,26.137318 C 82.286404,21.436264 78.409422,17.409644 69.133255,17.568673 z M 69.086771,22.728454 C 70.145963,22.702695 71.246692,22.793155 72.387171,23.038351 C 77.769954,25.114461 74.948322,31.800877 71.984306,31.916893 L 63.988969,31.916893 L 63.988969,23.534185 C 65.643526,23.122052 67.32145,22.771383 69.086771,22.728454 z M 72.263213,36.720292 C 76.359403,36.68602 79.76672,46.076363 71.457481,46.636988 C 70.562306,46.636988 66.606233,46.636973 63.880506,46.636988 L 63.880506,36.751282 C 66.674143,36.734076 69.472312,36.790453 72.263213,36.720292 z"
       id="B"
       style="fill:#231f20;fill-opacity:1;stroke:none;stroke-width:4;stroke-linecap:square;stroke-linejoin:miter;stroke-miterlimit:0;stroke-dashoffset:4.3;stroke-opacity:1" />
    <path
       d="M 127.79671,17.801096 C 123.24515,17.867904 119.73418,19.22307 117.46165,21.845248 L 117.46165,51.626326 C 117.55822,51.614614 117.65299,51.603215 117.75606,51.579841 C 117.79929,51.570029 121.21217,51.573118 124.63576,51.579841 L 124.63576,39.364584 C 128.30632,39.394711 131.60074,39.530495 135.54413,38.455714 C 143.8172,35.342997 145.96919,17.669615 129.74906,17.84758 L 127.79671,17.801096 z M 124.43433,23.317258 C 129.18076,23.233278 133.70445,22.461452 134.39751,28.32209 C 134.39867,32.465593 132.19318,33.327473 129.57862,33.326923 L 124.43433,33.326923 L 124.43433,23.317258 z"
       id="P"
       style="fill:#231f20;fill-opacity:1;stroke:none;stroke-width:4;stroke-linecap:square;stroke-linejoin:miter;stroke-miterlimit:0;stroke-dashoffset:4.3;stroke-opacity:1" />
    <path
       d="M 97.039458,17.894065 C 92.487908,17.960883 88.976926,19.316039 86.704401,21.938217 L 86.704401,51.719295 C 86.800975,51.707593 86.895734,51.696184 86.998803,51.67281 C 87.066385,51.657484 96.008359,51.655188 98.991807,51.688305 C 108.01152,51.788409 114.05278,44.127261 114.05279,34.814427 C 113.98279,25.151623 108.27116,18.024063 98.991807,17.940549 C 98.322346,17.9006 97.66954,17.884812 97.039458,17.894065 z M 94.110934,23.255278 C 103.07865,22.542774 105.25403,25.628106 106.63076,34.752448 C 106.26629,40.420811 103.30838,46.250882 100.18491,46.249617 L 94.095439,46.249617 L 94.110934,23.255278 z"
       id="D"
       style="fill:#231f20;fill-opacity:1;stroke:none;stroke-width:4;stroke-linecap:square;stroke-linejoin:miter;stroke-miterlimit:0;stroke-dashoffset:4.3;stroke-opacity:1" />
    <path
       d="M 1.5616767,89.781189 L 1.5616767,81.029334 L 4.8451149,81.029334 C 5.5137375,81.029342 6.0500319,81.117896 6.4539996,81.294994 C 6.8579558,81.472109 7.1743596,81.744733 7.4032118,82.112868 C 7.6320505,82.481019 7.7464732,82.866076 7.7464803,83.268042 C 7.7464732,83.642161 7.6449852,83.994384 7.442016,84.324712 C 7.2390333,84.655051 6.9325794,84.921705 6.5226533,85.124677 C 7.051977,85.279898 7.4589239,85.544563 7.7434954,85.918672 C 8.0280526,86.292788 8.1703348,86.734559 8.1703423,87.243987 C 8.1703348,87.653921 8.0837715,88.034999 7.9106522,88.38722 C 7.7375184,88.739445 7.5235976,89.011074 7.2688893,89.20211 C 7.0141677,89.393147 6.6947791,89.537419 6.3107223,89.634927 C 5.9266543,89.732435 5.4560286,89.781189 4.8988439,89.781189 L 1.5616767,89.781189 z M 2.7198349,84.706785 L 4.6122893,84.706785 C 5.1256952,84.70679 5.4938379,84.67296 5.7167185,84.605296 C 6.0112276,84.517743 6.2331082,84.372476 6.382361,84.169495 C 6.5316023,83.966524 6.6062258,83.711809 6.6062318,83.405349 C 6.6062258,83.114821 6.5365772,82.859111 6.3972857,82.638218 C 6.2579827,82.41734 6.0589867,82.266103 5.8002969,82.184507 C 5.5415969,82.102926 5.0978357,82.062132 4.469012,82.062124 L 2.7198349,82.062124 L 2.7198349,84.706785 z M 2.7198349,88.748398 L 4.8988439,88.748398 C 5.2729523,88.748399 5.5356271,88.73447 5.6868691,88.706609 C 5.9535188,88.658851 6.1763943,88.579253 6.3554965,88.467814 C 6.5345872,88.356377 6.6818443,88.194195 6.7972682,87.981268 C 6.9126797,87.768344 6.9703886,87.522584 6.9703949,87.243987 C 6.9703886,86.917636 6.8868103,86.634066 6.7196596,86.393278 C 6.5524969,86.152496 6.3206665,85.983349 6.0241677,85.885837 C 5.7276582,85.788333 5.3008117,85.739579 4.7436268,85.739575 L 2.7198349,85.739575 L 2.7198349,88.748398 z M 13.793976,89.781189 L 13.793976,88.849886 C 13.300461,89.566273 12.629845,89.924466 11.782124,89.924466 C 11.408009,89.924466 11.058771,89.852828 10.734409,89.70955 C 10.410044,89.566273 10.169258,89.386182 10.012053,89.169275 C 9.8548446,88.95237 9.7444018,88.686711 9.6807239,88.372295 C 9.6369439,88.161361 9.6150543,87.827048 9.6150551,87.369354 L 9.6150551,83.441168 L 10.689635,83.441168 L 10.689635,86.957432 C 10.689633,87.518604 10.711523,87.896696 10.755304,88.091711 C 10.82296,88.374287 10.966238,88.596167 11.185136,88.757353 C 11.404029,88.918541 11.674663,88.999134 11.99704,88.999134 C 12.319411,88.999134 12.621885,88.916551 12.904463,88.751383 C 13.187033,88.586218 13.387025,88.361352 13.504437,88.076786 C 13.62184,87.792223 13.680544,87.379307 13.680549,86.838034 L 13.680549,83.441168 L 14.755128,83.441168 L 14.755128,89.781189 L 13.793976,89.781189 z M 10.510538,82.199432 L 10.510538,80.975605 L 11.632877,80.975605 L 11.632877,82.199432 L 10.510538,82.199432 z M 12.737306,82.199432 L 12.737306,80.975605 L 13.859645,80.975605 L 13.859645,82.199432 L 12.737306,82.199432 z M 16.432667,89.781189 L 16.432667,83.441168 L 17.399788,83.441168 L 17.399788,84.40232 C 17.646542,83.952595 17.874392,83.65609 18.08334,83.512807 C 18.292284,83.369536 18.522124,83.297898 18.772863,83.297891 C 19.135032,83.297898 19.503175,83.413315 19.877292,83.644145 L 19.507159,84.641116 C 19.24448,84.485904 18.981805,84.408295 18.719134,84.40829 C 18.484315,84.408295 18.273379,84.478939 18.086325,84.620221 C 17.899267,84.761513 17.765939,84.957525 17.686343,85.208255 C 17.566943,85.590332 17.507244,86.008224 17.507246,86.461931 L 17.507246,89.781189 L 16.432667,89.781189 z M 20.331004,90.306539 L 21.375734,90.461756 C 21.419511,90.784129 21.540899,91.018944 21.739897,91.166203 C 22.00655,91.365198 22.370713,91.464696 22.832387,91.464697 C 23.329874,91.464696 23.713936,91.365198 23.984575,91.166203 C 24.255205,90.967205 24.438282,90.688611 24.533805,90.330419 C 24.589519,90.111522 24.615388,89.651842 24.611413,88.951375 C 24.141777,89.504584 23.556729,89.781189 22.856266,89.781189 C 21.98466,89.781189 21.310064,89.466775 20.832474,88.837947 C 20.354883,88.20912 20.116087,87.454925 20.116088,86.575359 C 20.116087,85.970415 20.225535,85.412231 20.444432,84.900806 C 20.663326,84.389391 20.980725,83.994384 21.396629,83.715783 C 21.812529,83.437195 22.301064,83.297898 22.862236,83.297891 C 23.610458,83.297898 24.227346,83.600372 24.712901,84.205314 L 24.712901,83.441168 L 25.703902,83.441168 L 25.703902,88.921525 C 25.703896,89.908546 25.603403,90.608018 25.402423,91.019941 C 25.201431,91.431861 24.883038,91.75722 24.447241,91.996017 C 24.011435,92.23481 23.475141,92.354208 22.838356,92.354211 C 22.082168,92.354208 21.47125,92.184066 21.005601,91.843785 C 20.539949,91.5035 20.315083,90.991085 20.331004,90.306539 L 20.331004,90.306539 z M 21.220517,86.497751 C 21.220515,87.329558 21.385682,87.936496 21.716018,88.318567 C 22.046349,88.70064 22.460261,88.891677 22.957754,88.891676 C 23.451261,88.891677 23.865173,88.701635 24.199491,88.321551 C 24.5338,87.94147 24.700956,87.345477 24.700961,86.53357 C 24.700956,85.757489 24.528825,85.17244 24.184566,84.778423 C 23.840298,84.384416 23.425392,84.18741 22.939845,84.187404 C 22.462251,84.18741 22.056299,84.381431 21.721987,84.769468 C 21.387672,85.157516 21.220515,85.733609 21.220517,86.497751 L 21.220517,86.497751 z M 31.67379,87.739487 L 32.784189,87.876795 C 32.609066,88.525524 32.284703,89.028984 31.811097,89.387176 C 31.337481,89.74537 30.732533,89.924466 29.996251,89.924466 C 29.068926,89.924466 28.333636,89.638907 27.790378,89.067787 C 27.247118,88.496669 26.975488,87.69571 26.975488,86.664908 C 26.975488,85.598292 27.250102,84.770468 27.799333,84.181434 C 28.348561,83.592412 29.060967,83.297898 29.936553,83.297891 C 30.784272,83.297898 31.476779,83.586442 32.014074,84.163525 C 32.551357,84.740619 32.820002,85.552523 32.820008,86.599239 C 32.820002,86.662921 32.818012,86.758439 32.814038,86.885793 L 28.085887,86.885793 C 28.125685,87.582283 28.322691,88.115592 28.676906,88.485723 C 29.031117,88.855857 29.472888,89.040924 30.002221,89.040923 C 30.39623,89.040924 30.732533,88.937446 31.011132,88.730489 C 31.289722,88.523534 31.510608,88.1932 31.67379,87.739487 L 31.67379,87.739487 z M 28.145586,86.00225 L 31.68573,86.00225 C 31.637965,85.468944 31.502648,85.068962 31.279777,84.802303 C 30.937499,84.388396 30.493738,84.18144 29.948492,84.181434 C 29.454979,84.18144 29.040072,84.346607 28.703771,84.676935 C 28.367465,85.007274 28.181404,85.449045 28.145586,86.00225 L 28.145586,86.00225 z M 34.127414,89.781189 L 34.127414,83.441168 L 35.094535,83.441168 L 35.094535,84.40232 C 35.341289,83.952595 35.569139,83.65609 35.778087,83.512807 C 35.987031,83.369536 36.216871,83.297898 36.467609,83.297891 C 36.829779,83.297898 37.197922,83.413315 37.572039,83.644145 L 37.201906,84.641116 C 36.939227,84.485904 36.676552,84.408295 36.41388,84.40829 C 36.179062,84.408295 35.968126,84.478939 35.781072,84.620221 C 35.594014,84.761513 35.460686,84.957525 35.38109,85.208255 C 35.26169,85.590332 35.201991,86.008224 35.201993,86.461931 L 35.201993,89.781189 L 34.127414,89.781189 z M 38.198874,89.781189 L 38.198874,81.029334 L 39.273454,81.029334 L 39.273454,89.781189 L 38.198874,89.781189 z M 40.950995,82.2651 L 40.950995,81.029334 L 42.025575,81.029334 L 42.025575,82.2651 L 40.950995,82.2651 z M 40.950995,89.781189 L 40.950995,83.441168 L 42.025575,83.441168 L 42.025575,89.781189 L 40.950995,89.781189 z M 47.804424,87.458903 L 48.861094,87.59621 C 48.745671,88.324538 48.450162,88.894662 47.974566,89.306583 C 47.49896,89.718505 46.914907,89.924466 46.222404,89.924466 C 45.354778,89.924466 44.657297,89.640897 44.129958,89.073757 C 43.602618,88.506619 43.338948,87.69372 43.338948,86.635058 C 43.338948,85.950515 43.452376,85.351537 43.679232,84.838122 C 43.906087,84.324717 44.251345,83.93966 44.715007,83.682949 C 45.178666,83.42625 45.683121,83.297898 46.228374,83.297891 C 46.916897,83.297898 47.480056,83.472019 47.917852,83.820256 C 48.355638,84.168505 48.636223,84.66301 48.759606,85.303773 L 47.714876,85.46496 C 47.615373,85.039113 47.439262,84.718729 47.186541,84.503808 C 46.933812,84.288898 46.628353,84.18144 46.270163,84.181434 C 45.72889,84.18144 45.289109,84.375461 44.950818,84.763498 C 44.612523,85.151546 44.443376,85.765449 44.443378,86.605209 C 44.443376,87.456915 44.606553,88.075793 44.932908,88.461844 C 45.25926,88.847897 45.685111,89.040924 46.210464,89.040923 C 46.632333,89.040924 46.984556,88.911576 47.267134,88.65288 C 47.549704,88.394186 47.728801,87.996194 47.804424,87.458903 L 47.804424,87.458903 z M 49.780459,89.781189 L 49.780459,81.029334 L 50.855039,81.029334 L 50.855039,84.169495 C 51.356507,83.588432 51.989314,83.297898 52.753463,83.297891 C 53.22309,83.297898 53.631032,83.390431 53.97729,83.575491 C 54.323538,83.760563 54.571288,84.016273 54.720541,84.342621 C 54.869782,84.66898 54.944406,85.142591 54.944412,85.763455 L 54.944412,89.781189 L 53.869832,89.781189 L 53.869832,85.763455 C 53.869827,85.226169 53.753414,84.835142 53.520594,84.590372 C 53.287764,84.345612 52.958425,84.223229 52.532577,84.223224 C 52.21418,84.223229 51.914691,84.305813 51.634109,84.470974 C 51.353522,84.636146 51.153531,84.860017 51.034135,85.142586 C 50.914736,85.425165 50.855037,85.815198 50.855039,86.312684 L 50.855039,89.781189 L 49.780459,89.781189 z M 56.168239,87.154438 L 56.168239,86.073889 L 59.469586,86.073889 L 59.469586,87.154438 L 56.168239,87.154438 z M 60.806839,89.781189 L 60.806839,81.029334 L 63.821632,81.029334 C 64.502195,81.029342 65.021574,81.071132 65.379773,81.154701 C 65.881237,81.270128 66.309079,81.479074 66.663299,81.78154 C 67.124963,82.17158 67.470221,82.670065 67.699074,83.276996 C 67.927912,83.883941 68.042334,84.577442 68.042343,85.357502 C 68.042334,86.022153 67.964726,86.611182 67.809517,87.124589 C 67.654292,87.638001 67.455296,88.062858 67.212528,88.39916 C 66.969746,88.735465 66.704086,89.000129 66.415548,89.193155 C 66.126997,89.386182 65.778754,89.532444 65.370818,89.631942 C 64.96287,89.73144 64.494235,89.781189 63.964909,89.781189 L 60.806839,89.781189 z M 61.964997,88.748398 L 63.833572,88.748398 C 64.410656,88.748399 64.863372,88.694671 65.191721,88.587211 C 65.520059,88.479755 65.781739,88.328518 65.976761,88.1335 C 66.25137,87.858887 66.465291,87.489749 66.618524,87.026086 C 66.771745,86.562428 66.848358,86.000264 66.848365,85.339593 C 66.848358,84.424215 66.698116,83.720764 66.397639,83.229237 C 66.097148,82.737724 65.73199,82.408385 65.302164,82.241221 C 64.991725,82.121831 64.492245,82.062132 63.803722,82.062124 L 61.964997,82.062124 L 61.964997,88.748398 z M 73.845074,87.739487 L 74.955473,87.876795 C 74.78035,88.525524 74.455986,89.028984 73.982381,89.387176 C 73.508765,89.74537 72.903817,89.924466 72.167535,89.924466 C 71.24021,89.924466 70.50492,89.638907 69.961662,89.067787 C 69.418401,88.496669 69.146772,87.69571 69.146772,86.664908 C 69.146772,85.598292 69.421386,84.770468 69.970617,84.181434 C 70.519844,83.592412 71.23225,83.297898 72.107836,83.297891 C 72.955556,83.297898 73.648062,83.586442 74.185357,84.163525 C 74.722641,84.740619 74.991286,85.552523 74.991292,86.599239 C 74.991286,86.662921 74.989296,86.758439 74.985322,86.885793 L 70.257171,86.885793 C 70.296969,87.582283 70.493975,88.115592 70.84819,88.485723 C 71.202401,88.855857 71.644172,89.040924 72.173505,89.040923 C 72.567514,89.040924 72.903817,88.937446 73.182416,88.730489 C 73.461006,88.523534 73.681892,88.1932 73.845074,87.739487 L 73.845074,87.739487 z M 70.31687,86.00225 L 73.857013,86.00225 C 73.809249,85.468944 73.673932,85.068962 73.451061,84.802303 C 73.108783,84.388396 72.665022,84.18144 72.119776,84.181434 C 71.626262,84.18144 71.211356,84.346607 70.875055,84.676935 C 70.538749,85.007274 70.352688,85.449045 70.31687,86.00225 L 70.31687,86.00225 z M 76.310637,89.781189 L 76.310637,83.441168 L 77.271789,83.441168 L 77.271789,84.330682 C 77.470783,84.020253 77.735448,83.770513 78.065784,83.581461 C 78.396115,83.392421 78.772217,83.297898 79.194093,83.297891 C 79.66372,83.297898 80.048777,83.395406 80.349266,83.590416 C 80.649745,83.785438 80.861676,84.058062 80.985059,84.40829 C 81.486524,83.66803 82.139231,83.297898 82.943182,83.297891 C 83.572002,83.297898 84.055563,83.472019 84.393865,83.820256 C 84.732149,84.168505 84.901296,84.7048 84.901305,85.429141 L 84.901305,89.781189 L 83.832695,89.781189 L 83.832695,85.787334 C 83.832687,85.357507 83.797863,85.048068 83.728222,84.859017 C 83.658566,84.669975 83.532203,84.517743 83.349135,84.40232 C 83.16605,84.286908 82.951135,84.229199 82.704387,84.229193 C 82.258628,84.229199 81.888496,84.377451 81.593988,84.67395 C 81.299467,84.970459 81.15221,85.445065 81.152216,86.097768 L 81.152216,89.781189 L 80.077636,89.781189 L 80.077636,85.661967 C 80.077632,85.18438 79.990073,84.826187 79.814961,84.587387 C 79.63984,84.348597 79.353286,84.229199 78.955297,84.229193 C 78.65282,84.229199 78.37323,84.308797 78.116528,84.467989 C 77.859821,84.627191 77.673759,84.860017 77.558344,85.166466 C 77.442924,85.472924 77.385215,85.914696 77.385217,86.491781 L 77.385217,89.781189 L 76.310637,89.781189 z M 86.107226,86.611179 C 86.107226,85.437105 86.433579,84.567492 87.086287,84.002338 C 87.631535,83.532713 88.296182,83.297898 89.08023,83.297891 C 89.951829,83.297898 90.664235,83.583457 91.21745,84.15457 C 91.770653,84.725694 92.047258,85.514714 92.047264,86.52163 C 92.047258,87.337517 91.924875,87.97928 91.680116,88.446919 C 91.435345,88.914561 91.079142,89.277729 90.611506,89.536424 C 90.14386,89.795119 89.633436,89.924466 89.08023,89.924466 C 88.192704,89.924466 87.475323,89.639902 86.928085,89.070772 C 86.380845,88.501644 86.107226,87.681781 86.107226,86.611179 L 86.107226,86.611179 z M 87.211655,86.611179 C 87.211654,87.423086 87.38876,88.031019 87.742975,88.434979 C 88.097186,88.838943 88.542937,89.040924 89.08023,89.040923 C 89.613536,89.040924 90.057297,88.837948 90.411515,88.431994 C 90.765723,88.026044 90.94283,87.407166 90.942835,86.575359 C 90.94283,85.791318 90.764728,85.197315 90.40853,84.793348 C 90.052322,84.389391 89.609556,84.18741 89.08023,84.187404 C 88.542937,84.18741 88.097186,84.388396 87.742975,84.790363 C 87.38876,85.19234 87.211654,85.799278 87.211655,86.611179 L 87.211655,86.611179 z M 93.31885,89.781189 L 93.31885,81.029334 L 94.39343,81.029334 L 94.39343,86.02016 L 96.936602,83.441168 L 98.327586,83.441168 L 95.903811,85.793304 L 98.572351,89.781189 L 97.247036,89.781189 L 95.151605,86.53954 L 94.39343,87.267866 L 94.39343,89.781189 L 93.31885,89.781189 z M 99.414107,89.781189 L 99.414107,83.441168 L 100.38123,83.441168 L 100.38123,84.40232 C 100.62798,83.952595 100.85583,83.65609 101.06478,83.512807 C 101.27372,83.369536 101.50356,83.297898 101.7543,83.297891 C 102.11647,83.297898 102.48462,83.413315 102.85873,83.644145 L 102.4886,84.641116 C 102.22592,84.485904 101.96325,84.408295 101.70057,84.40829 C 101.46576,84.408295 101.25482,84.478939 101.06777,84.620221 C 100.88071,84.761513 100.74738,84.957525 100.66778,85.208255 C 100.54838,85.590332 100.48869,86.008224 100.48869,86.461931 L 100.48869,89.781189 L 99.414107,89.781189 z M 107.64658,88.999134 C 107.24858,89.337428 106.86551,89.576223 106.49737,89.71552 C 106.12923,89.854818 105.73422,89.924466 105.31235,89.924466 C 104.61586,89.924466 104.08056,89.754324 103.70645,89.414041 C 103.33234,89.073758 103.14528,88.638952 103.14528,88.10962 C 103.14528,87.799188 103.21592,87.515619 103.35721,87.258911 C 103.4985,87.002209 103.68356,86.796248 103.91241,86.641028 C 104.14126,86.485814 104.39896,86.368407 104.68551,86.288805 C 104.89645,86.233089 105.21484,86.17936 105.64069,86.127618 C 106.50831,86.024143 107.14709,85.900766 107.55703,85.757485 C 107.561,85.610232 107.56299,85.516704 107.563,85.4769 C 107.56299,85.039113 107.4615,84.730669 107.25853,84.551567 C 106.98391,84.308797 106.57597,84.18741 106.03471,84.187404 C 105.52925,84.18741 105.15614,84.275963 104.91535,84.453064 C 104.67456,84.630176 104.49646,84.943595 104.38105,85.393322 L 103.33035,85.250044 C 103.42586,84.800318 103.58307,84.43715 103.80197,84.16054 C 104.02086,83.883941 104.33727,83.671015 104.75118,83.521762 C 105.16509,83.372521 105.64467,83.297898 106.18992,83.297891 C 106.73119,83.297898 107.17097,83.361576 107.50927,83.488927 C 107.84756,83.616291 108.0963,83.776483 108.2555,83.969503 C 108.4147,84.162535 108.52613,84.406306 108.58982,84.700815 C 108.62563,84.883896 108.64354,85.21423 108.64355,85.691816 L 108.64355,87.124589 C 108.64354,88.123552 108.66643,88.755364 108.7122,89.020028 C 108.75796,89.284694 108.84851,89.538414 108.98383,89.781189 L 107.86149,89.781189 C 107.75005,89.558313 107.67841,89.297629 107.64658,88.999134 L 107.64658,88.999134 z M 107.55703,86.599239 C 107.16699,86.758439 106.58194,86.893756 105.80188,87.005191 C 105.36011,87.068873 105.04768,87.140511 104.86461,87.220107 C 104.68153,87.299708 104.54024,87.416121 104.44075,87.569346 C 104.34125,87.722575 104.2915,87.892716 104.2915,88.079771 C 104.2915,88.366327 104.39995,88.605122 104.61686,88.796158 C 104.83376,88.987195 105.15116,89.082713 105.56906,89.082712 C 105.98296,89.082713 106.35111,88.99217 106.67348,88.811082 C 106.99585,88.629997 107.23266,88.382247 107.3839,88.067831 C 107.49931,87.825058 107.55702,87.466865 107.55703,86.993251 L 107.55703,86.599239 z M 112.66128,88.820037 L 112.8165,89.769249 C 112.51402,89.832928 112.24339,89.864767 112.00459,89.864767 C 111.61456,89.864767 111.31208,89.803079 111.09717,89.679701 C 110.88225,89.556323 110.73102,89.394142 110.64346,89.193155 C 110.5559,88.99217 110.51212,88.569303 110.51212,87.924554 L 110.51212,84.276953 L 109.7241,84.276953 L 109.7241,83.441168 L 110.51212,83.441168 L 110.51212,81.871088 L 111.58073,81.22634 L 111.58073,83.441168 L 112.66128,83.441168 L 112.66128,84.276953 L 111.58073,84.276953 L 111.58073,87.984253 C 111.58073,88.290709 111.59963,88.487715 111.63745,88.575272 C 111.67525,88.662831 111.73694,88.73248 111.82251,88.784218 C 111.90808,88.835958 112.03046,88.861827 112.18966,88.861826 C 112.30906,88.861827 112.46626,88.847897 112.66128,88.820037 L 112.66128,88.820037 z M 113.71199,82.2651 L 113.71199,81.029334 L 114.78656,81.029334 L 114.78656,82.2651 L 113.71199,82.2651 z M 113.71199,89.781189 L 113.71199,83.441168 L 114.78656,83.441168 L 114.78656,89.781189 L 113.71199,89.781189 z M 115.99845,87.888735 L 117.06109,87.721578 C 117.12079,88.147431 117.28695,88.473785 117.55958,88.700639 C 117.8322,88.927496 118.21328,89.040924 118.70281,89.040923 C 119.19632,89.040924 119.56247,88.940431 119.80127,88.739444 C 120.04006,88.538459 120.15946,88.302648 120.15946,88.032012 C 120.15946,87.789238 120.05399,87.598202 119.84306,87.458903 C 119.6958,87.363387 119.32964,87.241999 118.7446,87.09474 C 117.95657,86.895746 117.41033,86.723615 117.10586,86.578344 C 116.8014,86.43308 116.57056,86.232094 116.41336,85.975386 C 116.25615,85.718685 116.17755,85.435115 116.17755,85.124677 C 116.17755,84.842107 116.24222,84.580427 116.37157,84.339636 C 116.50092,84.098857 116.67703,83.898866 116.8999,83.739663 C 117.06706,83.616291 117.29491,83.511818 117.58346,83.426244 C 117.872,83.340682 118.18144,83.297898 118.51177,83.297891 C 119.00926,83.297898 119.44606,83.369536 119.82216,83.512807 C 120.19826,83.65609 120.47586,83.850112 120.65496,84.094871 C 120.83405,84.339642 120.95743,84.66699 121.0251,85.076918 L 119.9744,85.220195 C 119.92663,84.893846 119.78833,84.639131 119.55949,84.456049 C 119.33064,84.272978 119.00727,84.18144 118.58938,84.181434 C 118.09587,84.18144 117.74365,84.263028 117.53271,84.4262 C 117.32177,84.589382 117.21631,84.780418 117.21631,84.999309 C 117.21631,85.138611 117.26009,85.263979 117.34764,85.375412 C 117.4352,85.490834 117.57251,85.586352 117.75957,85.661967 C 117.86702,85.70177 118.18343,85.793308 118.70878,85.936581 C 119.46894,86.139561 119.99927,86.305723 120.29975,86.435067 C 120.60023,86.564418 120.83604,86.752469 121.00719,86.999221 C 121.17832,87.245979 121.26389,87.552433 121.26389,87.918584 C 121.26389,88.276779 121.15941,88.614077 120.95047,88.93048 C 120.74152,89.246885 120.44004,89.49165 120.04603,89.664776 C 119.65202,89.837903 119.20627,89.924466 118.70878,89.924466 C 117.88493,89.924466 117.2571,89.75333 116.82528,89.411056 C 116.39346,89.068783 116.11785,88.561343 115.99845,87.888735 L 115.99845,87.888735 z M 126.67858,87.458903 L 127.73525,87.59621 C 127.61983,88.324538 127.32432,88.894662 126.84872,89.306583 C 126.37312,89.718505 125.78906,89.924466 125.09656,89.924466 C 124.22893,89.924466 123.53145,89.640897 123.00412,89.073757 C 122.47677,88.506619 122.2131,87.69372 122.21311,86.635058 C 122.2131,85.950515 122.32653,85.351537 122.55339,84.838122 C 122.78024,84.324717 123.1255,83.93966 123.58916,83.682949 C 124.05282,83.42625 124.55728,83.297898 125.10253,83.297891 C 125.79105,83.297898 126.35421,83.472019 126.79201,83.820256 C 127.2298,84.168505 127.51038,84.66301 127.63376,85.303773 L 126.58903,85.46496 C 126.48953,85.039113 126.31342,84.718729 126.0607,84.503808 C 125.80797,84.288898 125.50251,84.18144 125.14432,84.181434 C 124.60305,84.18144 124.16327,84.375461 123.82497,84.763498 C 123.48668,85.151546 123.31753,85.765449 123.31753,86.605209 C 123.31753,87.456915 123.48071,88.075793 123.80707,88.461844 C 124.13342,88.847897 124.55927,89.040924 125.08462,89.040923 C 125.50649,89.040924 125.85871,88.911576 126.14129,88.65288 C 126.42386,88.394186 126.60296,87.996194 126.67858,87.458903 L 126.67858,87.458903 z M 128.65462,89.781189 L 128.65462,81.029334 L 129.7292,81.029334 L 129.7292,84.169495 C 130.23066,83.588432 130.86347,83.297898 131.62762,83.297891 C 132.09725,83.297898 132.50519,83.390431 132.85145,83.575491 C 133.1977,83.760563 133.44545,84.016273 133.5947,84.342621 C 133.74394,84.66898 133.81856,85.142591 133.81857,85.763455 L 133.81857,89.781189 L 132.74399,89.781189 L 132.74399,85.763455 C 132.74398,85.226169 132.62757,84.835142 132.39475,84.590372 C 132.16192,84.345612 131.83258,84.223229 131.40673,84.223224 C 131.08834,84.223229 130.78885,84.305813 130.50827,84.470974 C 130.22768,84.636146 130.02769,84.860017 129.90829,85.142586 C 129.78889,85.425165 129.72919,85.815198 129.7292,86.312684 L 129.7292,89.781189 L 128.65462,89.781189 z M 139.8004,87.739487 L 140.91079,87.876795 C 140.73567,88.525524 140.41131,89.028984 139.9377,89.387176 C 139.46409,89.74537 138.85914,89.924466 138.12286,89.924466 C 137.19553,89.924466 136.46024,89.638907 135.91698,89.067787 C 135.37372,88.496669 135.10209,87.69571 135.10209,86.664908 C 135.10209,85.598292 135.37671,84.770468 135.92594,84.181434 C 136.47517,83.592412 137.18757,83.297898 138.06316,83.297891 C 138.91088,83.297898 139.60338,83.586442 140.14068,84.163525 C 140.67796,84.740619 140.94661,85.552523 140.94661,86.599239 C 140.94661,86.662921 140.94462,86.758439 140.94064,86.885793 L 136.21249,86.885793 C 136.25229,87.582283 136.4493,88.115592 136.80351,88.485723 C 137.15772,88.855857 137.59949,89.040924 138.12883,89.040923 C 138.52284,89.040924 138.85914,88.937446 139.13774,88.730489 C 139.41633,88.523534 139.63721,88.1932 139.8004,87.739487 L 139.8004,87.739487 z M 136.27219,86.00225 L 139.81234,86.00225 C 139.76457,85.468944 139.62925,85.068962 139.40638,84.802303 C 139.06411,84.388396 138.62034,84.18144 138.0751,84.181434 C 137.58158,84.18144 137.16668,84.346607 136.83038,84.676935 C 136.49407,85.007274 136.30801,85.449045 136.27219,86.00225 L 136.27219,86.00225 z M 1.6094358,102.00752 L 1.6094358,93.255664 L 4.9107837,93.255664 C 5.4918479,93.255672 5.9356091,93.283532 6.2420686,93.339242 C 6.6718945,93.410889 7.0320774,93.547202 7.3226183,93.748179 C 7.6131459,93.949174 7.8469662,94.230753 8.0240801,94.592918 C 8.2011792,94.955099 8.2897324,95.353091 8.2897401,95.786896 C 8.2897324,96.531147 8.0529271,97.16097 7.5793234,97.676365 C 7.1057059,98.191769 6.2500229,98.449469 5.0122718,98.449466 L 2.767594,98.449466 L 2.767594,102.00752 L 1.6094358,102.00752 z M 2.767594,97.416675 L 5.0301814,97.416675 C 5.7784022,97.41668 6.3097217,97.277383 6.6241414,96.998783 C 6.9385492,96.720194 7.0957561,96.328171 7.0957625,95.822715 C 7.0957561,95.456569 7.003223,95.14315 6.8181628,94.882458 C 6.6330903,94.62178 6.3893201,94.449649 6.0868515,94.366063 C 5.89183,94.314331 5.5316471,94.288462 5.0063019,94.288454 L 2.767594,94.288454 L 2.767594,97.416675 z M 13.776067,101.22546 C 13.37807,101.56376 12.995002,101.80255 12.626863,101.94185 C 12.258717,102.08115 11.86371,102.1508 11.441841,102.1508 C 10.745352,102.1508 10.210053,101.98065 9.8359409,101.64037 C 9.4618274,101.30009 9.2747711,100.86528 9.2747715,100.33595 C 9.2747711,100.02552 9.3454147,99.741949 9.4867025,99.485241 C 9.6279891,99.228539 9.8130554,99.022578 10.041902,98.867358 C 10.270746,98.712144 10.528446,98.594736 10.815003,98.515135 C 11.025936,98.459419 11.34433,98.40569 11.770185,98.353948 C 12.637804,98.250473 13.276582,98.127096 13.686518,97.983815 C 13.690494,97.836561 13.692483,97.743033 13.692488,97.70323 C 13.692483,97.265443 13.590995,96.956999 13.388024,96.777897 C 13.113405,96.535127 12.705463,96.41374 12.164197,96.413734 C 11.658744,96.41374 11.285626,96.502293 11.044843,96.679394 C 10.804056,96.856506 10.625954,97.169925 10.510538,97.619651 L 9.459838,97.476374 C 9.5553555,97.026648 9.7125624,96.66348 9.9314591,96.38687 C 10.150354,96.110271 10.466757,95.897345 10.880671,95.748092 C 11.294581,95.598851 11.774162,95.524227 12.319414,95.524221 C 12.86068,95.524227 13.300461,95.587906 13.638759,95.715257 C 13.977048,95.842621 14.225793,96.002813 14.384995,96.195833 C 14.544187,96.388865 14.655624,96.632635 14.719309,96.927144 C 14.755122,97.110226 14.773032,97.440559 14.773038,97.918146 L 14.773038,99.350919 C 14.773032,100.34988 14.795917,100.98169 14.841692,101.24636 C 14.887455,101.51102 14.977998,101.76474 15.113322,102.00752 L 13.990983,102.00752 C 13.87954,101.78464 13.807901,101.52396 13.776067,101.22546 L 13.776067,101.22546 z M 13.686518,98.825569 C 13.296481,98.984769 12.711433,99.120086 11.931371,99.231521 C 11.489597,99.295203 11.177173,99.366841 10.994099,99.446437 C 10.811021,99.526038 10.669733,99.642451 10.570237,99.795675 C 10.470737,99.948905 10.420988,100.11905 10.42099,100.3061 C 10.420988,100.59266 10.529441,100.83145 10.746349,101.02249 C 10.963253,101.21352 11.280651,101.30904 11.698546,101.30904 C 12.112455,101.30904 12.480598,101.2185 12.802975,101.03741 C 13.125345,100.85633 13.36215,100.60858 13.513392,100.29416 C 13.628805,100.05139 13.686514,99.693195 13.686518,99.219581 L 13.686518,98.825569 z M 16.432667,102.00752 L 16.432667,95.667498 L 17.399788,95.667498 L 17.399788,96.62865 C 17.646542,96.178924 17.874392,95.88242 18.08334,95.739137 C 18.292284,95.595866 18.522124,95.524227 18.772863,95.524221 C 19.135032,95.524227 19.503175,95.639645 19.877292,95.870474 L 19.507159,96.867446 C 19.24448,96.712234 18.981805,96.634625 18.719134,96.63462 C 18.484315,96.634625 18.273379,96.705269 18.086325,96.846551 C 17.899267,96.987843 17.765939,97.183854 17.686343,97.434585 C 17.566943,97.816662 17.507244,98.234554 17.507246,98.688261 L 17.507246,102.00752 L 16.432667,102.00752 z M 22.874176,101.04637 L 23.029393,101.99558 C 22.726916,102.05926 22.456281,102.0911 22.217488,102.0911 C 21.827453,102.0911 21.524979,102.02941 21.310065,101.90603 C 21.095148,101.78265 20.943911,101.62047 20.856354,101.41948 C 20.768794,101.2185 20.725015,100.79563 20.725016,100.15088 L 20.725016,96.503282 L 19.936991,96.503282 L 19.936991,95.667498 L 20.725016,95.667498 L 20.725016,94.097418 L 21.793626,93.45267 L 21.793626,95.667498 L 22.874176,95.667498 L 22.874176,96.503282 L 21.793626,96.503282 L 21.793626,100.21058 C 21.793624,100.51704 21.812529,100.71404 21.85034,100.8016 C 21.888147,100.88916 21.949836,100.95881 22.035407,101.01055 C 22.120973,101.06229 22.243355,101.08816 22.402555,101.08816 C 22.52195,101.08816 22.679156,101.07423 22.874176,101.04637 L 22.874176,101.04637 z M 28.259014,99.965817 L 29.369413,100.10312 C 29.19429,100.75185 28.869927,101.25531 28.396321,101.61351 C 27.922706,101.9717 27.317758,102.1508 26.581476,102.1508 C 25.654151,102.1508 24.91886,101.86524 24.375602,101.29412 C 23.832342,100.723 23.560712,99.92204 23.560713,98.891237 C 23.560712,97.824622 23.835327,96.996798 24.384557,96.407764 C 24.933785,95.818741 25.646191,95.524227 26.521777,95.524221 C 27.369497,95.524227 28.062003,95.812772 28.599298,96.389855 C 29.136582,96.966949 29.405226,97.778853 29.405232,98.825569 C 29.405226,98.889251 29.403236,98.984769 29.399263,99.112123 L 24.671112,99.112123 C 24.710909,99.808612 24.907915,100.34192 25.26213,100.71205 C 25.616341,101.08219 26.058113,101.26725 26.587446,101.26725 C 26.981454,101.26725 27.317758,101.16378 27.596357,100.95682 C 27.874947,100.74986 28.095832,100.41953 28.259014,99.965817 L 28.259014,99.965817 z M 24.73081,98.22858 L 28.270954,98.22858 C 28.22319,97.695274 28.087872,97.295292 27.865001,97.028633 C 27.522724,96.614726 27.078962,96.40777 26.533717,96.407764 C 26.040203,96.40777 25.625296,96.572937 25.288995,96.903265 C 24.952689,97.233603 24.766628,97.675375 24.73081,98.22858 L 24.73081,98.22858 z M 30.730547,94.49143 L 30.730547,93.255664 L 31.805127,93.255664 L 31.805127,94.49143 L 30.730547,94.49143 z M 30.730547,102.00752 L 30.730547,95.667498 L 31.805127,95.667498 L 31.805127,102.00752 L 30.730547,102.00752 z M 36.581035,99.195702 L 37.673525,99.100184 C 37.725262,99.537978 37.845655,99.897166 38.034703,100.17775 C 38.223747,100.45833 38.517266,100.68519 38.915261,100.85832 C 39.313251,101.03144 39.760992,101.11801 40.258486,101.11801 C 40.700253,101.11801 41.090285,101.05234 41.428584,100.921 C 41.766872,100.78966 42.018602,100.60957 42.183775,100.38072 C 42.348935,100.15188 42.431519,99.902141 42.431525,99.631504 C 42.431519,99.356891 42.35192,99.117101 42.19273,98.912132 C 42.033527,98.707169 41.770852,98.535038 41.404704,98.395737 C 41.169884,98.304202 40.650504,98.16192 39.846564,97.96889 C 39.042616,97.775868 38.479457,97.593786 38.157086,97.422645 C 37.739192,97.203754 37.427763,96.932124 37.222798,96.607755 C 37.017831,96.283397 36.915348,95.920229 36.915349,95.518251 C 36.915348,95.076486 37.040716,94.663569 37.291452,94.279499 C 37.542186,93.895445 37.908338,93.603915 38.389911,93.404911 C 38.871479,93.205923 39.406779,93.106425 39.995811,93.106416 C 40.644534,93.106425 41.216648,93.210898 41.712154,93.419835 C 42.207648,93.62879 42.588726,93.936239 42.855387,94.342183 C 43.122035,94.748143 43.265312,95.207824 43.285219,95.721227 L 42.17482,95.804806 C 42.115115,95.251603 41.913134,94.833711 41.568876,94.551129 C 41.224608,94.268562 40.716173,94.127275 40.04357,94.127267 C 39.3431,94.127275 38.832675,94.255627 38.512294,94.512325 C 38.191908,94.769037 38.031716,95.078476 38.031718,95.440642 C 38.031716,95.755063 38.145144,96.013758 38.372002,96.216728 C 38.594875,96.41971 39.176938,96.62766 40.118194,96.840581 C 41.059441,97.053512 41.705183,97.239573 42.055422,97.398766 C 42.564846,97.633585 42.940949,97.931085 43.183731,98.291264 C 43.426499,98.65145 43.547887,99.066357 43.547894,99.535985 C 43.547887,100.00164 43.414559,100.44042 43.147912,100.85235 C 42.88125,101.26427 42.498182,101.58465 41.998708,101.8135 C 41.499222,102.04234 40.937058,102.15677 40.312215,102.15677 C 39.520206,102.15677 38.856555,102.04135 38.321258,101.81051 C 37.785956,101.57968 37.366074,101.23243 37.061611,100.76877 C 36.757146,100.30511 36.596954,99.780753 36.581035,99.195702 L 36.581035,99.195702 z M 49.141682,99.685232 L 50.198352,99.82254 C 50.082928,100.55087 49.787419,101.12099 49.311823,101.53291 C 48.836218,101.94484 48.252164,102.1508 47.559661,102.1508 C 46.692035,102.1508 45.994554,101.86723 45.467216,101.30009 C 44.939875,100.73295 44.676205,99.92005 44.676206,98.861388 C 44.676205,98.176845 44.789633,97.577867 45.016489,97.064452 C 45.243344,96.551047 45.588602,96.16599 46.052265,95.909279 C 46.515924,95.65258 47.020379,95.524227 47.565631,95.524221 C 48.254154,95.524227 48.817313,95.698349 49.25511,96.046586 C 49.692896,96.394835 49.97348,96.88934 50.096864,97.530103 L 49.052133,97.69129 C 48.95263,97.265443 48.776519,96.945059 48.523798,96.730138 C 48.271069,96.515228 47.96561,96.40777 47.607421,96.407764 C 47.066148,96.40777 46.626367,96.601791 46.288075,96.989828 C 45.94978,97.377876 45.780633,97.991778 45.780635,98.831539 C 45.780633,99.683245 45.94381,100.30212 46.270166,100.68817 C 46.596517,101.07423 47.022369,101.26725 47.547722,101.26725 C 47.96959,101.26725 48.321813,101.13791 48.604392,100.87921 C 48.886962,100.62052 49.066058,100.22252 49.141682,99.685232 L 49.141682,99.685232 z M 51.117713,102.00752 L 51.117713,93.255664 L 52.192292,93.255664 L 52.192292,96.395824 C 52.69376,95.814762 53.326568,95.524227 54.090717,95.524221 C 54.560343,95.524227 54.968285,95.61676 55.314544,95.801821 C 55.660792,95.986893 55.908542,96.242603 56.057795,96.568951 C 56.207036,96.89531 56.281659,97.368921 56.281665,97.989784 L 56.281665,102.00752 L 55.207086,102.00752 L 55.207086,97.989784 C 55.207081,97.452499 55.090668,97.061472 54.857847,96.816702 C 54.625017,96.571942 54.295679,96.449559 53.869831,96.449553 C 53.551433,96.449559 53.251944,96.532142 52.971363,96.697304 C 52.690776,96.862476 52.490785,97.086346 52.371389,97.368916 C 52.251989,97.651495 52.19229,98.041527 52.192292,98.539014 L 52.192292,102.00752 L 51.117713,102.00752 z M 59.093482,102.00752 L 57.153269,95.667498 L 58.263668,95.667498 L 59.272579,99.327039 L 59.648682,100.68817 C 59.664599,100.62052 59.774047,100.18471 59.977026,99.380768 L 60.985937,95.667498 L 62.090366,95.667498 L 63.039578,99.344949 L 63.355982,100.55684 L 63.720145,99.333009 L 64.806665,95.667498 L 65.851395,95.667498 L 63.869392,102.00752 L 62.753023,102.00752 L 61.744112,98.21067 L 61.499347,97.130121 L 60.215821,102.00752 L 59.093482,102.00752 z M 71.098926,99.965817 L 72.209326,100.10312 C 72.034203,100.75185 71.709839,101.25531 71.236234,101.61351 C 70.762618,101.9717 70.15767,102.1508 69.421388,102.1508 C 68.494063,102.1508 67.758773,101.86524 67.215515,101.29412 C 66.672254,100.723 66.400624,99.92204 66.400625,98.891237 C 66.400624,97.824622 66.675239,96.996798 67.224469,96.407764 C 67.773697,95.818741 68.486103,95.524227 69.361689,95.524221 C 70.209409,95.524227 70.901915,95.812772 71.43921,96.389855 C 71.976494,96.966949 72.245139,97.778853 72.245145,98.825569 C 72.245139,98.889251 72.243149,98.984769 72.239175,99.112123 L 67.511024,99.112123 C 67.550822,99.808612 67.747828,100.34192 68.102043,100.71205 C 68.456254,101.08219 68.898025,101.26725 69.427358,101.26725 C 69.821367,101.26725 70.15767,101.16378 70.436269,100.95682 C 70.714859,100.74986 70.935745,100.41953 71.098926,99.965817 L 71.098926,99.965817 z M 67.570723,98.22858 L 71.110866,98.22858 C 71.063102,97.695274 70.927785,97.295292 70.704914,97.028633 C 70.362636,96.614726 69.918875,96.40777 69.373629,96.407764 C 68.880115,96.40777 68.465209,96.572937 68.128907,96.903265 C 67.792602,97.233603 67.606541,97.675375 67.570723,98.22858 L 67.570723,98.22858 z M 73.57046,94.49143 L 73.57046,93.255664 L 74.64504,93.255664 L 74.64504,94.49143 L 73.57046,94.49143 z M 73.57046,102.00752 L 73.57046,95.667498 L 74.64504,95.667498 L 74.64504,102.00752 L 73.57046,102.00752 z M 75.719618,102.00752 L 75.719618,101.13592 L 79.755262,96.503282 C 79.297567,96.527167 78.893605,96.539107 78.543375,96.539102 L 75.958413,96.539102 L 75.958413,95.667498 L 81.140276,95.667498 L 81.140276,96.377915 L 77.70759,100.40162 L 77.044933,101.13592 C 77.526502,101.1001 77.978223,101.08219 78.400097,101.08219 L 81.331312,101.08219 L 81.331312,102.00752 L 75.719618,102.00752 z"
       transform="scale(1.0276262,0.9731165)"
       id="text3181"
       style="font-size:12.2263298px;font-style:normal;font-variant:normal;font-weight:normal;font-stretch:normal;text-align:start;line-height:100%;writing-mode:lr-tb;text-anchor:start;fill:#000000;fill-opacity:1;stroke:none;stroke-width:1px;stroke-linecap:butt;stroke-linejoin:miter;stroke-opacity:1;font-family:Arial;-inkscape-font-specification:Arial" />
  </g>
</svg>
