<?xml version="1.0" encoding="UTF-8" standalone="no"?>
<svg
   xmlns:dc="http://purl.org/dc/elements/1.1/"
   xmlns:cc="http://web.resource.org/cc/"
   xmlns:rdf="http://www.w3.org/1999/02/22-rdf-syntax-ns#"
   xmlns:svg="http://www.w3.org/2000/svg"
   xmlns="http://www.w3.org/2000/svg"
   xmlns:sodipodi="http://sodipodi.sourceforge.net/DTD/sodipodi-0.dtd"
   xmlns:inkscape="http://www.inkscape.org/namespaces/inkscape"
   version="1.1"
   id="CVP-Logo-PAN"
   width="297.895"
   height="238.111"
   viewBox="0 0 297.895 238.111"
   overflow="visible"
   enable-background="new 0 0 297.895 238.111"
   xml:space="preserve"
   sodipodi:version="0.32"
   inkscape:version="0.45.1"
   sodipodi:docname="Logo-CVP.svg"
   inkscape:output_extension="org.inkscape.output.svg.inkscape"
   sodipodi:docbase="C:\Home\tw\Desktop"><metadata
   id="metadata8"><rdf:RDF><cc:Work
       rdf:about=""><dc:format>image/svg+xml</dc:format><dc:type
         rdf:resource="http://purl.org/dc/dcmitype/StillImage" /></cc:Work></rdf:RDF></metadata><defs
   id="defs6" /><sodipodi:namedview
   inkscape:window-height="775"
   inkscape:window-width="1092"
   inkscape:pageshadow="2"
   inkscape:pageopacity="0.0"
   guidetolerance="10.0"
   gridtolerance="10.0"
   objecttolerance="10.0"
   borderopacity="1.0"
   bordercolor="#666666"
   pagecolor="#ffffff"
   id="base"
   inkscape:zoom="1.587495"
   inkscape:cx="148.94749"
   inkscape:cy="119.0555"
   inkscape:window-x="132"
   inkscape:window-y="132"
   inkscape:current-layer="CVP-Logo-PAN" />
<polygon
   id="Raute"
   fill="#FFFFFF"
   points="59.783,0 0,238.111 238.111,238.111 297.895,0 " />
<path
   id="Fahne"
   fill="#E1A23C"
   d="M235.858,127.408h30.047L238.11,238.111H0L59.783,0h238.11l-6.367,25.361h-26.939l-9.014,32.016  h-32.986l-10.76,34.017h34.17L235.858,127.408z M175.17,157.99h-20.017l-26.89,42.714h-0.198l-4.681-42.714h-18.623l9.063,56.464  h22.904L175.17,157.99z M103.114,159.156c0,0-8.096-2.578-22.451-2.221c-26.081,0.65-42.322,13.8-42.322,32.564  c0,15.535,12.846,26.294,35.252,26.294c6.273,0,10.541-0.68,15.023-1.894l3.289-12.402c-5.389,1.335-8.753,1.415-15.424,1.335  c-9.65-0.115-18.639-2.706-19.482-12.927c-0.878-10.643,5.97-20.465,24.591-20.465c5.876,0,12.396-0.07,18.257,1.988  L103.114,159.156z M162.777,214.454h18.523l5.176-19.738h9.461c16.729,0,30.871-7.117,30.871-21.194  c0-14.237-15.338-15.531-30.574-15.531h-18.52L162.777,214.454z M193.248,168.668h5.479c4.98,0,9.559,1.133,9.559,6.551  c0,6.713-6.67,8.818-14.041,8.818h-4.977L193.248,168.668z"
   style="fill:#ff850c;fill-opacity:1" />
</svg>