<?xml version="1.0" encoding="UTF-8" standalone="no"?>
<!-- Created with Inkscape (http://www.inkscape.org/) -->
<svg
   xmlns:dc="http://purl.org/dc/elements/1.1/"
   xmlns:cc="http://creativecommons.org/ns#"
   xmlns:rdf="http://www.w3.org/1999/02/22-rdf-syntax-ns#"
   xmlns:svg="http://www.w3.org/2000/svg"
   xmlns="http://www.w3.org/2000/svg"
   xmlns:sodipodi="http://sodipodi.sourceforge.net/DTD/sodipodi-0.dtd"
   xmlns:inkscape="http://www.inkscape.org/namespaces/inkscape"
   id="svg2403"
   sodipodi:version="0.32"
   inkscape:version="0.46"
   width="698.12543"
   height="222.03111"
   xml:space="preserve"
   inkscape:output_extension="org.inkscape.output.svg.inkscape"
   version="1.0"><metadata
     id="metadata2408"><rdf:RDF><cc:Work
         rdf:about=""><dc:format>image/svg+xml</dc:format><dc:type
           rdf:resource="http://purl.org/dc/dcmitype/StillImage" /></cc:Work></rdf:RDF></metadata><defs
     id="defs2406"><inkscape:perspective
       id="perspective2634"
       inkscape:persp3d-origin="372.04724 : 350.78739 : 1"
       inkscape:vp_z="744.09448 : 526.18109 : 1"
       inkscape:vp_y="0 : 1000 : 0"
       inkscape:vp_x="0 : 526.18109 : 1"
       sodipodi:type="inkscape:persp3d" /></defs><sodipodi:namedview
     inkscape:window-height="968"
     inkscape:window-width="1280"
     inkscape:pageshadow="2"
     inkscape:pageopacity="0.0"
     guidetolerance="10.0"
     gridtolerance="10.0"
     objecttolerance="10.0"
     borderopacity="1.0"
     bordercolor="#666666"
     pagecolor="#ffffff"
     id="base"
     showgrid="false"
     inkscape:zoom="2"
     inkscape:cx="344.00333"
     inkscape:cy="184.49284"
     inkscape:window-x="-4"
     inkscape:window-y="-4"
     inkscape:current-layer="g2412" /><g
     id="g2412"
     inkscape:groupmode="layer"
     transform="matrix(1.25,0,0,-1.25,-0.6605686,222.36231)"><path
       id="path2416"
       style="fill:#231f20;fill-opacity:1;fill-rule:nonzero;stroke:none"
       d="M 47.812855,32.446655 C 47.812855,4.9943139 39.576396,0.26495519 24.322574,0.26495519 C 10.446836,0.26495519 1.5962912,8.1956772 1.5962912,22.536278 L 1.5962912,24.669145 L 15.478493,24.669145 C 15.171244,19.176889 17.458836,13.078111 24.62666,13.078111 C 34.235702,13.078111 33.32138,22.379902 33.32138,29.396853 L 33.32138,42.208358 L 33.017844,42.208358 C 31.033788,35.955955 26.30553,31.530132 19.289267,31.83807 C 0.98756866,31.83807 0.52875746,57.917278 0.52875746,71.035482 C 0.52875746,83.388313 0.22370853,111.29933 18.985593,111.29933 C 26.612917,111.29933 29.966254,107.02892 33.017844,100.92931 L 33.32138,101.23326 L 33.32138,110.07941 L 47.812855,110.07941 L 47.812855,32.446655 z M 24.17005,98.486722 C 14.256922,98.486722 15.171244,77.439446 15.171244,71.950491 C 15.171244,66.154699 14.256922,44.651225 24.62666,44.651225 C 35.000799,44.651225 33.476655,64.934641 33.476655,71.187044 C 33.476655,77.439446 33.476655,98.486722 24.17005,98.486722" /><path
       id="path2418"
       style="fill:#231f20;fill-opacity:1;fill-rule:nonzero;stroke:none"
       d="M 75.416207,100.62399 L 75.720843,100.62399 C 79.074869,107.33287 84.108176,111.29933 92.039448,111.29933 L 92.039448,97.115515 L 89.596719,97.268177 C 78.922207,97.268177 75.565568,91.320135 75.565568,81.555819 L 75.565568,33.058128 L 61.077807,33.058128 L 61.077807,110.07941 L 75.416207,110.07941 L 75.416207,100.62399" /><path
       id="path2420"
       style="fill:#231f20;fill-opacity:1;fill-rule:nonzero;stroke:none"
       d="M 116.44515,110.07941 L 116.44515,61.883601 C 116.44515,55.019313 115.52505,44.954761 125.28717,44.954761 C 134.89525,44.954761 133.82661,54.258066 133.82661,61.120291 L 133.82661,110.07941 L 148.16584,110.07941 L 148.16584,58.072003 C 148.16584,42.208358 143.43744,31.83807 125.89644,31.83807 C 105.00375,31.83807 102.10455,43.583141 102.10455,61.120291 L 102.10455,110.07941 L 116.44515,110.07941" /><path
       id="path2422"
       style="fill:#231f20;fill-opacity:1;fill-rule:nonzero;stroke:none"
       d="M 175.76878,101.23326 L 176.07685,101.23326 C 179.28,107.48415 184.0084,111.29933 191.63325,111.29933 C 206.88294,111.29933 207.3423,97.727538 207.3423,85.982604 L 207.3423,33.058128 L 193.00446,33.058128 L 193.00446,86.28614 C 193.00446,91.626835 192.08848,98.486722 184.46226,98.486722 C 175.00959,98.486722 175.76878,87.660924 175.76878,81.101821 L 175.76878,33.058128 L 161.43093,33.058128 L 161.43093,110.07941 L 175.76878,110.07941 L 175.76878,101.23326" /><path
       id="path2424"
       style="fill:#231f20;fill-opacity:1;fill-rule:nonzero;stroke:none"
       d="M 220.45611,33.058128 L 234.79079,33.058128 L 234.79079,159.64628 L 220.45611,159.64628 L 220.45611,33.058128 z" /><path
       id="path2426"
       style="fill:#231f20;fill-opacity:1;fill-rule:nonzero;stroke:none"
       d="M 245.62058,133.41331 C 245.62058,138.59969 249.89099,142.87148 255.22866,142.87148 C 260.26101,142.87148 264.68545,138.59969 264.68545,133.41331 C 264.68545,128.07702 260.26101,123.80661 255.22866,123.80661 C 249.89099,123.80661 245.62058,128.07702 245.62058,133.41331 z M 262.24286,33.058128 L 247.90776,33.058128 L 247.90776,110.07941 L 262.24286,110.07941 L 262.24286,33.058128" /><path
       id="path2428"
       style="fill:#231f20;fill-opacity:1;fill-rule:nonzero;stroke:none"
       d="M 275.35941,159.64642 L 289.69176,159.64642 L 289.69176,101.53721 L 289.99846,101.53721 C 292.89629,107.48415 296.40752,111.29933 303.72429,111.29933 C 321.87731,111.29933 322.3298,85.369618 322.3298,72.558663 C 322.3298,60.053858 322.02585,31.83807 304.18365,31.83807 C 295.94815,31.83807 292.89629,36.261142 289.99846,42.972768 L 289.69176,42.972768 L 289.69176,33.058128 L 275.35941,33.058128 L 275.35941,159.64642 z M 307.68937,71.646955 C 307.68937,77.899358 308.91342,98.486722 298.23258,98.486722 C 288.6245,98.486722 289.23378,77.747246 289.23378,71.646955 C 289.23378,65.542813 288.6245,44.802649 298.23258,44.651225 C 308.91342,44.802649 307.68937,65.391251 307.68937,71.646955" /><path
       id="path2430"
       style="fill:#231f20;fill-opacity:1;fill-rule:nonzero;stroke:none"
       d="M 345.81912,68.74899 C 345.81912,62.34035 345.50967,44.651225 354.81792,44.651225 C 362.43864,44.651225 363.8181,53.038008 363.8181,58.985774 L 377.08457,58.985774 C 377.08457,44.802649 370.82955,31.83807 354.66388,31.83807 C 333.15917,31.83807 331.17457,54.716327 331.17457,71.035482 C 331.17457,86.746052 333.00514,111.29933 354.20452,111.29933 C 375.09996,111.29933 377.53843,86.896513 377.53843,71.035482 L 377.53843,68.74899 L 345.81912,68.74899 z M 362.898,78.967304 C 362.898,84.914658 362.898,98.486722 354.20452,98.486722 C 345.20434,98.486722 345.81912,84.914658 345.81912,78.967304 L 362.898,78.967304" /><path
       id="path2432"
       style="fill:#231f20;fill-opacity:1;fill-rule:nonzero;stroke:none"
       d="M 402.85831,100.62399 L 403.16364,100.62399 C 406.52083,107.33287 411.55317,111.29933 419.48472,111.29933 L 419.48472,97.115515 L 417.038,97.268177 C 406.36266,97.268177 403.00685,91.320135 403.00685,81.555819 L 403.00685,33.058128 L 388.52322,33.058128 L 388.52322,110.07941 L 402.85831,110.07941 L 402.85831,100.62399" /><path
       id="path2434"
       style="fill:#231f20;fill-opacity:1;fill-rule:nonzero;stroke:none"
       d="M 459.89751,42.972768 L 459.59356,42.972768 C 456.69436,36.261142 453.648,31.83807 445.4125,31.83807 C 427.56343,31.83807 427.26085,60.053858 427.26085,72.558663 C 427.26085,85.369618 427.71884,111.29933 445.86636,111.29933 C 452.58074,111.29933 456.99831,107.18158 459.59356,101.53721 L 459.89751,101.53721 L 459.89751,110.07941 L 474.23261,110.07941 L 474.23261,33.058128 L 459.89751,33.058128 L 459.89751,42.972768 z M 460.3555,71.646955 C 460.3555,77.747246 460.9634,98.486722 451.35807,98.486722 C 440.68273,98.486722 441.8999,77.899358 441.8999,71.646955 C 441.8999,65.238177 440.68273,44.651225 451.35807,44.651225 C 460.9634,44.651225 460.3555,65.542813 460.3555,71.646955" /><path
       id="path2436"
       style="fill:#231f20;fill-opacity:1;fill-rule:nonzero;stroke:none"
       d="M 487.35054,33.058128 L 501.68674,33.058128 L 501.68674,159.64628 L 487.35054,159.64628 L 487.35054,33.058128 z" /><path
       id="path2438"
       style="fill:#231f20;fill-opacity:1;fill-rule:nonzero;stroke:none"
       d="M 527.30397,68.74899 C 527.30397,62.34035 527.00003,44.651225 536.30416,44.651225 C 543.929,44.651225 545.30159,53.038008 545.30159,58.985774 L 558.5763,58.985774 C 558.5763,44.802649 552.32266,31.83807 536.15562,31.83807 C 514.65091,31.83807 512.6663,54.716327 512.6663,71.035482 C 512.6663,86.746052 514.49825,111.29933 535.69351,111.29933 C 556.58895,111.29933 559.02879,86.896513 559.02879,71.035482 L 559.02879,68.74899 L 527.30397,68.74899 z M 544.38836,78.967304 C 544.38836,84.914658 544.38836,98.486722 535.69351,98.486722 C 526.69745,98.486722 527.30397,84.914658 527.30397,78.967304 L 544.38836,78.967304" /><path
       id="path2442"
       style="fill:#ffffff;fill-opacity:1;fill-rule:nonzero;stroke:none"
       d="M 172.85032,176.97287 L 97.652596,118.68349" /><path
       style="fill:none;stroke:#daed84;stroke-width:1.10435009;stroke-linecap:round;stroke-linejoin:miter;stroke-miterlimit:4;stroke-dasharray:none;stroke-opacity:1"
       d="M 173.0518,177.1632 L 97.655104,118.6915 L 173.0518,177.1632 z"
       id="path2444" /><path
       style="fill:#c3d93f;fill-opacity:1"
       d="M 128.56583,67.437562 C 128.56583,67.401874 129.06926,66.423625 129.68457,65.263674 C 131.90547,61.076965 134.49171,55.11256 137.51013,47.216378 C 143.70994,30.997685 146.84025,24.420983 151.60032,17.613274 C 155.52595,11.998937 160.4486,8.2433854 167.69083,5.3375916 C 175.094,2.3672279 184.3508,0.73548537 196.62833,0.23664537 C 202.04443,0.016587866 205.41732,0.072527866 208.7067,0.43696912 C 210.31359,0.61500037 212.26247,0.79781412 213.03753,0.84321912 L 214.44673,0.92577412 L 171.73665,34.050774 C 126.60462,69.054187 128.56583,67.537449 128.56583,67.437562 z"
       id="path2642"
       transform="matrix(0.8,0,0,-0.8,0.5284549,177.88985)" /><path
       style="fill:#c3d93f;fill-opacity:1"
       d="M 130.75333,67.669299 C 130.89083,67.569837 149.73458,52.955968 172.62833,35.19405 C 195.52208,17.432128 214.27282,2.9156391 214.29663,2.9351791 C 214.32044,2.9547191 214.15914,3.2334629 213.93819,3.5546104 C 213.36409,4.3890379 212.28788,6.7240716 211.83712,8.1132741 C 211.29225,9.7924741 211.01754,10.952874 210.50547,13.738274 C 208.78535,23.094844 205.83605,31.938089 202.23028,38.550774 C 199.84073,42.933022 197.3796,46.294038 194.30085,49.37951 C 187.95164,55.742614 180.40089,58.982303 169.28574,60.112378 C 167.13241,60.331304 164.14921,60.489868 157.50333,60.738629 C 150.65466,60.994975 148.99489,61.152395 146.19083,61.811533 C 142.75505,62.619165 140.14624,63.598198 133.8553,66.440812 C 130.79951,67.821599 130.2323,68.046237 130.75333,67.669299 z"
       id="path2644"
       transform="matrix(0.8,0,0,-0.8,0.5284549,177.88985)" /></g></svg>