<?xml version="1.0" standalone="no"?>
<!DOCTYPE svg PUBLIC "-//W3C//DTD SVG 20010904//EN"
 "http://www.w3.org/TR/2001/REC-SVG-20010904/DTD/svg10.dtd">
<svg version="1.0" xmlns="http://www.w3.org/2000/svg"
 width="851.000000pt" height="567.000000pt" viewBox="0 0 851.000000 567.000000"
 preserveAspectRatio="xMidYMid meet">

<g transform="translate(0.000000,567.000000) scale(0.100000,-0.100000)"
fill="#000000" stroke="none">
<path d="M770 2835 l0 -2145 3480 0 3480 0 0 2145 0 2145 -3480 0 -3480 0 0
-2145z m4783 92 c49 -39 47 -134 -4 -165 -11 -7 -42 -16 -68 -19 -43 -5 -51
-2 -82 25 -29 26 -34 37 -34 77 0 40 5 51 33 76 42 38 112 41 155 6z m-264
-23 c56 -46 50 -138 -10 -169 -44 -23 -113 -19 -144 8 -38 33 -45 101 -15 140
43 54 119 63 169 21z m2125 -147 c5 -65 7 -120 4 -122 -2 -2 -69 -10 -149 -16
-79 -7 -148 -15 -153 -20 -4 -4 -5 -22 -1 -39 l7 -33 77 7 c42 3 106 9 142 12
l66 6 7 -78 c4 -44 9 -100 12 -125 l5 -46 -78 -7 c-227 -19 -213 -16 -213 -45
0 -53 3 -54 171 -38 85 7 155 13 157 11 8 -6 34 -235 28 -241 -7 -7 -618 -63
-624 -58 -4 4 -83 897 -80 901 5 5 543 52 578 50 l35 -1 9 -118z m-751 -395
c22 -244 36 -446 32 -450 -9 -9 -258 -30 -267 -23 -14 12 -205 357 -219 394
-7 20 -16 37 -21 37 -4 0 -5 -6 -3 -12 8 -20 43 -432 38 -438 -5 -6 -256 -29
-262 -24 -4 4 -83 896 -79 899 5 4 230 25 270 25 35 0 35 0 120 -152 46 -84
92 -169 101 -188 l17 -35 -6 45 c-9 79 -32 345 -30 348 5 5 183 20 226 18 l45
-1 38 -443z m-939 326 c20 -149 47 -537 43 -609 -3 -70 -10 -96 -33 -138 -58
-108 -172 -156 -374 -156 -111 0 -130 3 -173 24 -26 13 -63 42 -82 64 -60 69
-74 133 -104 479 -16 172 -27 314 -27 315 6 8 288 25 295 17 4 -5 18 -133 31
-284 26 -319 31 -345 64 -354 28 -7 85 2 104 17 17 14 15 91 -12 387 -13 140
-23 256 -22 257 3 4 181 20 233 22 l52 1 5 -42z m-1030 -72 c67 -21 115 -61
142 -121 52 -113 39 -250 -30 -331 l-35 -41 36 -54 c43 -63 51 -70 79 -63 20
5 22 1 28 -83 4 -48 9 -107 12 -129 l6 -42 -42 -7 c-72 -12 -156 -8 -193 10
-43 20 -68 51 -137 173 -65 115 -86 121 -77 25 4 -38 10 -107 13 -154 l7 -85
-144 -12 c-78 -6 -144 -11 -145 -9 -1 1 -18 193 -38 427 -20 234 -38 436 -39
450 l-2 25 170 16 c220 21 330 23 389 5z m-823 -57 c46 -6 88 -14 92 -19 7 -6
-19 -249 -27 -257 -1 -1 -40 5 -87 13 -101 20 -211 15 -238 -10 -11 -10 -22
-32 -25 -51 -9 -46 12 -251 31 -297 17 -43 38 -52 97 -44 41 6 42 7 38 41 -4
32 -7 35 -37 35 l-33 0 -7 68 c-3 37 -8 88 -11 113 l-6 46 149 12 c81 7 158
14 171 17 13 3 24 -1 27 -8 3 -10 45 -451 45 -478 0 -11 -84 -45 -186 -76 -72
-22 -110 -27 -204 -28 -100 -1 -122 2 -166 22 -135 61 -205 203 -220 448 -10
168 27 289 113 364 95 84 273 117 484 89z m2159 -1166 c0 -10 7 -92 15 -181 8
-90 13 -168 9 -173 -3 -5 -22 -9 -43 -9 l-39 0 -7 75 -7 75 -55 0 -56 0 6 -79
5 -80 -40 -6 c-21 -4 -41 -5 -44 -3 -5 6 -38 368 -33 372 2 2 22 6 44 8 l40 3
7 -68 c3 -38 9 -71 12 -74 2 -3 28 -2 56 2 l52 7 -7 74 -7 74 46 0 c37 0 46
-3 46 -17z m-356 -24 c3 -3 3 -22 -1 -42 -5 -34 -8 -36 -32 -30 -86 24 -117
-2 -115 -96 2 -93 18 -125 66 -129 20 -2 51 4 68 13 30 15 30 15 40 -10 6 -15
10 -32 10 -39 0 -22 -60 -41 -127 -41 -55 0 -65 3 -93 30 -41 39 -63 118 -58
201 7 109 64 158 175 152 34 -2 65 -6 67 -9z m-450 -45 c17 -45 9 -51 -70 -59
-61 -5 -74 -10 -70 -22 3 -8 6 -26 6 -39 0 -24 1 -24 70 -18 l70 7 0 -35 c0
-33 -2 -36 -37 -42 -21 -3 -50 -6 -65 -6 -26 0 -28 -3 -28 -41 l0 -42 74 6
c78 6 86 2 86 -43 0 -24 -14 -27 -137 -36 -79 -5 -103 -4 -103 6 0 7 -7 89
-16 183 -8 93 -11 174 -7 178 8 8 64 13 169 17 39 2 53 -2 58 -14z m-319 -16
c5 -16 35 -361 32 -365 -2 -1 -21 -5 -42 -8 l-40 -6 -39 63 c-22 35 -55 88
-74 118 l-34 55 6 -80 c4 -44 9 -99 12 -121 l6 -42 -39 -4 c-21 -3 -39 -4 -41
-3 -6 5 -35 366 -29 371 3 3 23 8 44 11 44 6 33 18 131 -137 30 -47 52 -74 49
-60 -3 14 -9 66 -13 117 l-6 91 28 5 c16 2 33 5 37 6 4 0 9 -5 12 -11z m-355
-62 l0 -33 -70 -7 -70 -7 0 -39 0 -39 69 6 68 6 5 -36 4 -35 -68 -7 c-65 -7
-68 -8 -68 -34 0 -47 11 -53 86 -49 l69 3 3 -32 c4 -38 1 -39 -134 -48 l-101
-7 -14 174 c-8 95 -14 180 -14 188 0 16 56 25 173 28 l62 2 0 -34z m-317 -16
c4 -16 9 -83 13 -149 8 -137 -1 -173 -49 -198 -41 -21 -136 -27 -166 -11 -51
28 -62 56 -76 209 -8 79 -12 145 -10 147 2 2 21 6 43 9 l39 5 6 -53 c4 -30 9
-90 13 -134 8 -104 15 -115 64 -115 58 0 64 18 51 154 -15 153 -15 154 12 159
49 9 54 7 60 -23z m-407 -25 c23 -10 39 -26 49 -49 21 -50 19 -78 -10 -120
l-25 -37 26 -39 c14 -21 32 -41 40 -44 8 -3 14 -19 14 -35 0 -24 -5 -32 -25
-37 -35 -9 -68 16 -107 81 -46 78 -64 71 -60 -23 l2 -72 -44 0 -43 0 -13 158
c-20 243 -26 216 50 223 36 3 75 6 88 7 12 1 38 -5 58 -13z m-309 -23 c8 -5
10 -21 7 -44 l-6 -35 -41 9 c-50 11 -89 3 -112 -22 -15 -17 -17 -32 -12 -91 8
-92 25 -119 77 -119 45 0 49 4 43 48 -4 26 -10 32 -29 32 -21 0 -24 5 -24 34
0 31 3 34 38 40 87 14 88 14 95 -61 4 -38 7 -84 7 -104 0 -36 -1 -37 -58 -53
-158 -44 -231 10 -240 179 -5 104 11 145 71 174 43 22 158 29 184 13z m1871
-134 c28 -28 7 -78 -32 -78 -33 0 -48 15 -48 45 0 41 51 62 80 33z"/>
<path d="M4457 2393 c-9 -8 -9 -81 -1 -122 6 -29 9 -31 49 -31 53 0 70 19 68
76 -2 66 -16 84 -67 84 -23 0 -46 -3 -49 -7z"/>
<path d="M3714 1142 c-5 -4 -8 -28 -6 -54 4 -45 6 -48 32 -48 50 0 74 44 50
91 -11 19 -55 26 -76 11z"/>
</g>
</svg>
