<?xml version="1.0" encoding="UTF-8" standalone="no"?>
<!-- Created with Inkscape (http://www.inkscape.org/) -->
<svg
   xmlns:svg="http://www.w3.org/2000/svg"
   xmlns="http://www.w3.org/2000/svg"
   version="1.0"
   width="602.36218"
   height="395.32675"
   id="svg1925">
  <defs
     id="defs1927" />
  <g
     id="layer1">
    <g
       id="g2043">
      <rect
         width="361.37833"
         height="124.8913"
         x="99.974731"
         y="196.66118"
         style="fill:white;fill-rule:evenodd"
         id="_87964736" />
      <path
         d="M 355.97193,57.28592 C 353.87748,56.44368 351.45315,56.29274 348.33114,56.79057 C 340.90685,57.96907 336.04579,63.8336 335.92319,71.72277 C 335.8215,78.8884 340.16666,82.1323 343.99414,84.99529 C 347.23024,87.4136 350.02981,89.50592 349.97878,93.54955 C 349.95044,94.95234 349.50362,99.62809 344.54866,100.41116 C 342.17323,100.79242 340.34595,100.15214 338.33158,99.08171 L 337.1591,98.46163 L 337.03862,106.69167 L 337.44044,106.93616 C 339.5487,108.19439 342.39752,108.63482 345.45398,108.14549 C 353.83496,106.81392 358.31689,99.45482 358.41681,92.8664 C 358.51673,85.83754 355.4089,82.80943 351.01484,79.29199 C 351.03717,79.30616 345.92914,74.84691 345.92914,74.84691 C 344.78536,73.60073 344.3467,72.42222 344.3754,70.53612 C 344.41012,67.80352 346.3104,64.73077 349.86469,64.16986 C 351.97118,63.8336 353.4902,64.34313 355.12154,65.19955 L 356.27984,65.81148 L 356.49599,57.49604 L 355.97193,57.28592 z M 382.97583,68.85978 C 381.96847,68.75384 381.01213,68.73754 380.01079,68.89663 C 373.08398,70.00392 370.07004,76.93285 370.07819,83.22541 C 370.08457,89.29793 373.09815,96.30411 379.97606,95.21136 C 380.98343,95.05226 381.99079,94.61998 382.99,94.1388 L 383.00417,101.77923 C 381.83169,102.45423 380.61634,102.86419 379.34217,103.06581 C 367.97595,104.87856 361.66921,95.35415 361.66921,84.62218 C 361.65469,74.47982 368.20662,63.02006 378.95453,61.31537 C 380.32898,61.09923 381.6524,61.15628 382.97583,61.43762 L 382.97583,68.85978 z M 395.93016,59.09868 L 395.94433,75.09742 L 403.92351,73.8314 L 403.91536,57.8323 L 411.80665,56.57443 L 411.82083,97.46844 L 403.9437,98.72065 L 403.92953,81.42081 L 395.94433,82.69321 L 395.96063,99.99518 L 388.07536,101.2449 L 388.05516,60.35053 L 395.93016,59.09868 z M 423.33799,54.74714 L 426.72681,73.73148 C 427.20799,76.52892 427.31004,79.44293 427.58323,82.27722 L 427.68315,82.2549 C 428.06441,79.32069 428.26638,76.35565 428.84961,73.39273 L 432.79721,53.23628 L 439.04087,52.24309 L 444.14287,79.6449 L 444.2428,79.62222 C 444.50996,76.70856 444.55283,73.87392 445.03402,70.92553 L 448.1415,50.79742 L 456.39173,49.48852 L 448.16382,91.69392 L 441.34331,92.77852 L 437.25894,71.83899 C 436.99177,69.38596 436.51661,66.96978 436.1435,64.53092 L 436.03543,64.5451 C 435.6113,67.11222 435.35228,69.64498 434.77508,72.23478 L 430.23008,94.54238 L 423.35217,95.63549 L 415.29575,56.01955 L 423.33799,54.74714 z M 476.1322,46.34419 L 476.1322,53.94175 L 468.15339,55.21415 L 468.15339,64.10679 L 475.18827,62.98321 L 475.19642,70.58077 L 468.16154,71.69443 L 468.16756,80.9173 L 476.2548,79.63037 L 476.26898,87.21801 L 460.28441,89.76494 L 460.26209,48.87057 L 476.1322,46.34419 z M 490.02268,44.13565 L 490.04323,85.03214 L 482.16008,86.28399 L 482.1374,45.396 L 490.02268,44.13565 z M 518.77413,39.56797 L 505.13665,75.03222 L 517.675,73.04018 L 517.68138,80.63561 L 493.66874,84.45707 L 506.92071,49.04171 L 495.3387,50.89132 L 495.33055,43.29553 L 518.77413,39.56797 z M 538.42708,36.43994 L 538.43523,44.03573 L 530.44189,45.30211 L 530.45004,54.20077 L 537.48492,53.07718 L 537.49307,60.6751 L 530.45606,61.79018 L 530.45606,71.01128 L 538.55748,69.72435 L 538.56386,77.31411 L 522.58744,79.85289 L 522.55874,38.96455 L 538.42708,36.43994 z M 551.72193,51.89868 L 553.09425,51.73356 C 556.69141,51.16451 558.11689,48.44644 558.11689,45.07994 C 558.11689,42.15175 556.73429,39.98608 552.77216,40.83435 L 551.71378,40.99947 L 551.72193,51.89868 z M 543.85118,76.47187 L 543.83063,35.58352 L 551.7648,34.3175 C 556.79346,33.51813 565.77752,32.63514 565.78389,43.80541 C 565.78389,48.30966 564.04449,52.43903 560.13764,55.2875 L 567.0726,72.78116 L 558.77134,74.10459 L 551.82823,56.32959 L 551.72193,56.35191 L 551.73645,75.22817 L 543.85118,76.47187 z M 420.66244,113.03738 L 420.67661,139.50092 C 420.67661,142.58785 420.31803,147.3125 424.60402,146.62935 C 428.4602,146.01777 428.4602,143.03254 428.51087,139.99025 L 428.49669,111.7912 L 436.37984,110.53332 L 436.39437,140.36549 C 436.39437,144.7025 435.92736,152.15549 424.55299,153.9601 C 417.20205,155.12655 412.80799,152.29828 412.80799,144.65962 L 412.78532,114.2871 L 420.66244,113.03738 z M 72.72528,53.24443 C 72.72528,53.24443 101.31375,70.02624 111.64391,81.27588 C 111.64391,81.27588 122.15938,81.09057 132.11643,66.14774 C 132.11643,66.14774 137.83426,74.45112 143.74131,70.58077 C 143.74131,70.58077 145.21568,69.84695 147.42422,65.96844 C 147.42422,65.96844 154.98493,58.03427 164.20603,57.3001 C 164.20603,57.3001 158.30678,58.22171 151.85513,51.21553 C 151.85513,51.21553 125.47733,23.18195 116.62757,19.67868 C 116.62757,19.67868 114.413,18.01687 110.90158,18.5714 C 110.90158,18.5714 99.47229,19.49089 89.3278,34.61904 C 89.3278,34.61904 80.84123,48.45246 72.72528,53.24443 L 72.72528,53.24443 z M 565.9483,89.93006 L 565.95645,97.52762 L 559.71279,98.51266 L 559.72697,131.81939 L 551.84984,133.06947 L 551.82752,99.77088 L 545.64267,100.75769 L 545.63453,93.16014 L 565.9483,89.93006 z M 387.77914,149.8247 C 384.44914,146.98226 383.95378,139.18486 383.95378,134.79045 C 383.95378,128.41604 384.90197,117.58238 391.26185,116.57502 C 392.67917,116.35285 393.93103,116.69124 394.97311,117.59053 C 398.08059,120.2434 398.74354,127.22939 398.74354,132.62478 C 398.74354,137.75336 398.03169,149.78821 391.43512,150.82994 C 390.05288,151.05423 388.81484,150.71584 387.77914,149.8247 z M 410.32555,157.0247 L 403.41894,150.06139 C 406.07996,145.63049 407.84205,139.40702 407.84205,130.99769 C 407.84205,121.61183 405.62748,114.75624 401.44106,111.17962 C 398.74354,108.87754 395.275,107.9864 391.43512,108.58982 C 383.42158,109.86435 374.8613,117.8414 374.8613,136.40726 C 374.8613,145.80376 377.07587,152.65084 381.25591,156.22569 C 383.95378,158.52777 387.40603,159.42706 391.26185,158.81513 C 393.66386,158.43387 396.11689,157.44884 398.36831,155.75868 L 404.93016,162.36943 L 410.32555,157.0247 z M 452.59437,124.66014 L 451.68693,118.61809 L 451.58701,118.64077 L 450.73874,124.95565 L 449.05425,136.12805 L 454.60874,135.24293 L 452.59437,124.66014 z M 456.07496,107.40317 L 465.67094,146.77427 L 457.26161,148.11187 L 455.77307,141.45825 L 447.78823,142.73065 L 446.36488,149.83887 L 438.53063,151.08895 L 447.76768,108.72659 L 456.07496,107.40317 z M 477.23878,104.03667 L 477.25933,137.33525 L 485.51169,136.026 L 485.51169,143.61576 L 469.37618,146.18502 L 469.3535,105.28852 L 477.23878,104.03667 z M 498.02772,100.73537 L 498.05004,141.62336 L 490.17291,142.87557 L 490.14457,101.97907 L 498.02772,100.73537 z M 522.47228,96.84269 L 522.47228,104.44025 L 516.22649,105.43344 L 516.24917,138.72387 L 508.36602,139.98387 L 508.34335,106.68317 L 502.15673,107.67033 L 502.15071,100.07242 L 522.47228,96.84269 z M 540.08216,91.00864 C 537.96539,91.341 536.16079,89.84431 536.16079,87.67262 C 536.16079,85.39108 537.90834,83.27041 540.17393,82.90935 C 542.34775,82.56459 544.03791,84.19805 544.03791,86.42077 C 544.04429,88.58608 542.24571,90.66423 540.08216,91.00864 z M 535.11693,111.54033 L 534.21161,105.50466 L 534.10956,105.51884 L 533.2613,111.83407 L 531.57894,122.99832 L 537.13165,122.12136 L 535.11693,111.54033 z M 529.07488,92.75832 C 526.96059,93.09671 525.16201,91.58584 525.16201,89.42018 C 525.15386,87.14041 526.90354,85.02399 529.1748,84.65691 C 531.34862,84.31214 533.03913,85.94561 533.03913,88.16833 C 533.04516,90.33364 531.24657,92.41179 529.07488,92.75832 z M 538.59964,94.28336 L 548.19563,133.64632 L 539.78665,134.99029 L 538.30413,128.33667 L 530.31291,129.60305 L 528.89559,136.7173 L 521.06134,137.96136 L 530.29023,95.59864 L 538.59964,94.28336 z "
         style="fill:#ef412f;fill-rule:nonzero"
         id="_48067712" />
      <path
         d="M 131.20154,65.41569 L 108.69198,60.99116 L 102.98017,65.41569 L 95.41308,57.47974 L 106.48343,50.661 C 106.48343,50.661 102.23997,44.39466 97.99473,41.25246 C 97.99473,41.25246 101.87324,36.82758 106.66308,33.87884 L 114.77867,42.35974 L 123.99942,34.61904 C 123.99942,34.61904 129.34591,39.77809 131.00595,43.09994 L 123.44666,53.05699 C 123.44666,53.05699 129.1645,62.65297 131.20154,65.41569 z "
         style="fill:white;fill-rule:nonzero"
         id="_87941760" />
      <path
         d="M 106.61383,34.354 C 107.00961,34.77813 114.74997,42.8714 114.74997,42.8714 C 114.74997,42.8714 123.49591,35.51833 123.97887,35.11687 C 124.99261,36.11573 129.06457,40.23695 130.56729,43.07124 C 130.27993,43.44648 123.0002,53.03431 123.0002,53.03431 L 123.13698,53.24443 C 123.34497,53.61151 128.07954,61.53151 130.37383,64.87533 C 128.72619,64.55927 108.60623,60.59537 108.60623,60.59537 C 108.60623,60.59537 103.49217,64.55112 103.01702,64.92636 C 102.59891,64.48805 96.55721,58.14234 95.99631,57.55911 C 96.71631,57.11478 107.00147,50.77722 107.00147,50.77722 L 106.7793,50.45903 C 106.61383,50.20002 102.6641,44.41096 98.52906,41.21561 C 99.41985,40.2451 102.6928,36.82155 106.61383,34.354 z M 106.46926,33.56278 C 101.68544,36.50337 97.75804,40.96474 97.71517,41.014 L 97.4565,41.31766 L 97.78072,41.55435 C 101.38355,44.21537 105.04591,49.25785 105.95123,50.55293 C 105.33328,50.94234 94.82985,57.40817 94.82985,57.40817 L 102.93765,65.9114 C 102.93765,65.9114 108.53465,61.58041 108.78552,61.38659 C 109.10973,61.44364 132.04981,65.96242 132.04981,65.96242 L 131.48891,65.19955 C 129.6191,62.63844 124.5458,54.17844 123.89135,53.08533 C 124.18686,52.70407 131.43824,43.13644 131.43824,43.13644 L 131.33831,42.93482 C 129.668,39.59667 124.47457,34.56199 124.25241,34.354 L 124.02174,34.11553 C 124.02174,34.11553 115.31087,41.4399 114.80702,41.85589 C 114.35454,41.38073 106.72828,33.41218 106.72828,33.41218 L 106.46926,33.56278 z "
         style="fill:black;fill-rule:nonzero"
         id="_87941160" />
      <path
         d="M 129.06457,189.84848 C 138.35052,189.05726 145.21426,188.43116 145.21426,188.43116 C 185.21749,183.69021 261.87162,181.56954 290.48028,180.91509 C 287.22788,67.09203 118.39993,79.09002 129.06457,189.84848 z "
         style="fill:#fff200;fill-rule:nonzero"
         id="_87939096" />
      <path
         d="M 68.12182,234.90269 C 78.07674,234.72092 100.57001,233.77273 120.25166,232.87344 C 122.00737,212.96183 139.48863,204.84801 139.48863,204.84801 C 159.32087,195.99222 185.5704,198.48813 196.92812,200.17864 L 196.89942,200.18679 C 196.89942,200.18679 201.82603,200.86994 205.0926,202.25856 C 218.13481,208.62446 221.70327,222.48624 222.67379,230.06785 C 225.34296,230.08202 227.98981,230.0962 230.63064,230.11887 L 225.75292,199.74635 L 263.61918,199.74635 L 266.97752,230.67942 C 277.18544,230.90194 286.64465,231.16875 294.93989,231.42777 L 310.09674,199.74635 L 347.71213,199.74635 L 330.72835,232.70832 C 335.55469,232.74305 341.06453,232.91631 347.035,233.18135 L 354.11276,199.99084 L 421.98445,199.74635 C 459.04531,202.9619 455.80106,233.98072 454.34087,241.9149 C 461.03134,242.59805 465.01579,243.03033 465.01579,243.03033 C 494.15665,247.44706 527.35531,250.03686 527.35531,250.03686 C 537.31023,250.03686 546.7209,251.34576 554.00027,252.77123 C 556.41681,245.65663 560.5887,230.91612 558.71287,218.31435 C 558.71287,218.31435 559.44492,205.40076 528.4626,199.50151 C 528.4626,199.50151 413.37315,177.36718 301.61583,180.68478 C 301.61583,180.68478 298.61642,180.73368 293.42264,180.8499 C 292.94784,180.86407 292.46453,180.87009 291.95465,180.88639 C 291.47347,180.89277 290.98414,180.90694 290.48028,180.91509 C 261.87162,181.56954 185.21749,183.69021 145.21426,188.43116 C 145.21426,188.43116 138.35052,189.05726 129.06457,189.84848 C 128.57524,189.89135 128.08591,189.93387 127.5902,189.97887 C 127.10087,190.02175 126.61757,190.05647 126.12221,190.10112 C 114.35454,191.10033 99.70757,192.28096 89.88091,192.85604 C 89.88091,192.85604 54.46804,195.43769 46.354223,208.35127 C 46.354223,208.35127 40.275679,213.48588 47.80627,235.08801 C 58.35221,233.44852 68.12182,234.90269 68.12182,234.90269 z M 410.23768,227.98793 L 382.11835,227.98793 L 380.56425,235.26942 C 393.12528,236.21159 405.93717,237.3047 417.66197,238.36911 C 417.91284,236.12407 418.04925,229.22561 410.23768,227.98793 z M 182.74249,224.766 C 164.6656,219.60092 159.13343,226.88879 159.13343,226.88879 C 158.04068,228.55061 157.55135,229.94561 157.45142,231.13226 C 167.15548,230.69998 177.41229,230.42041 187.89304,230.24714 C 185.92969,226.07525 182.74249,224.766 182.74249,224.766 z "
         style="fill:#71bf44;fill-rule:nonzero"
         id="_87934576" />
      <path
         d="M 568.30106,256.30285 C 568.30106,256.30285 562.64665,254.4536 554.00063,252.77123 C 546.72126,251.34576 537.31059,250.03686 527.35567,250.03686 C 527.35567,250.03686 494.15701,247.44706 465.01614,243.03033 C 465.01614,243.03033 461.03169,242.59805 454.34122,241.9149 C 454.12508,243.08738 453.95181,243.7645 453.95181,243.7645 C 449.76575,275.48702 413.6265,276.96316 413.6265,276.96316 L 371.57205,276.96316 L 364.1924,311.87891 L 330.25957,311.87891 L 347.03536,233.18135 C 341.06488,232.91631 335.55504,232.74305 330.7287,232.70832 L 290.1791,311.3832 L 243.70154,311.3832 L 230.63099,230.11887 C 227.99016,230.0962 225.34331,230.08202 222.67414,230.06785 C 223.07595,233.20403 223.04725,235.2758 223.04725,235.2758 L 189.28804,235.36935 C 189.05949,233.3121 188.54146,231.62761 187.89304,230.24714 C 177.41229,230.42041 167.15548,230.69998 157.45142,231.13226 C 157.02516,235.9671 163.16288,237.24765 163.16288,237.24765 C 172.50623,239.58446 188.85753,242.65722 188.85753,242.65722 C 208.40879,245.7282 216.65264,256.9208 216.65264,256.9208 C 229.06875,276.71053 213.45127,294.48517 213.45127,294.48517 C 193.16619,315.31875 161.43587,312.36824 161.43587,312.36824 C 131.00631,312.36824 122.33796,304.44222 122.33796,304.44222 C 104.45489,293.37789 108.44749,269.08604 108.44749,269.08604 L 144.1052,269.08604 C 141.76839,280.026 150.25745,284.95438 150.25745,284.95438 C 168.4502,294.05501 180.98678,282.73804 180.98678,282.73804 C 188.98012,274.25112 176.93111,270.32194 176.93111,270.32194 C 167.52859,267.55285 141.15079,260.54631 141.15079,260.54631 C 119.76446,255.93576 120.12942,237.67179 120.12942,237.67179 C 120.06635,236.00147 120.11524,234.40486 120.25202,232.87344 C 100.57036,233.77273 78.0771,234.72092 68.12217,234.90269 C 68.12217,234.90269 58.35257,233.44852 47.806624,235.08801 C 40.023042,236.28919 31.81568,239.18265 26.801546,245.60596 C 26.801546,245.60596 13.529026,261.83501 19.061192,279.53667 C 19.061192,279.53667 26.434459,301.30604 38.981309,314.58493 C 38.981309,314.58493 57.04969,338.56072 88.03202,330.4469 C 88.03202,330.4469 95.41343,325.64891 150.37154,328.97076 C 150.37154,328.97076 294.60185,331.17895 339.59654,328.97076 C 339.59654,328.97076 427.76146,325.28182 512.97586,330.4469 C 512.97586,330.4469 556.86362,337.08635 571.24945,316.79915 C 571.24945,316.79915 584.53011,305.72879 584.53011,285.44371 C 584.53011,285.44371 587.11177,264.04958 568.30106,256.30285 z M 417.5539,239.08875 C 417.5539,239.08875 417.6191,238.81557 417.66197,238.36911 C 405.93717,237.3047 393.12528,236.21159 380.56425,235.26942 L 377.32036,250.58324 L 407.72725,250.64844 C 407.72725,250.64844 416.07953,250.15096 417.5539,239.08875 z M 272.22268,278.92686 L 294.94024,231.42777 C 286.645,231.16875 277.18579,230.90194 266.97788,230.67942 L 272.22268,278.92686 z "
         style="fill:#00a55a;fill-rule:nonzero"
         id="_47261536" />
      <path
         d="M 545.44673,362.23355 C 545.44673,359.57855 544.74303,358.12474 542.35342,358.12474 C 541.29716,358.12474 538.9522,358.40607 538.9522,361.33426 C 538.9522,363.80182 541.5335,364.27663 544.11728,365.13127 C 546.65606,365.99584 549.23736,366.89513 549.23736,371.03832 C 549.23736,375.46143 546.3889,377.61257 542.46964,377.61257 C 535.35504,377.61257 535.27567,372.32525 535.27567,370.17375 L 538.56279,370.17375 C 538.56279,372.72068 539.26827,375.03092 542.46964,375.03092 C 543.5259,375.03092 545.95023,374.51926 545.95023,371.5482 C 545.95023,368.72808 543.37496,368.13883 540.82803,367.28241 C 538.28323,366.41997 535.66508,365.67977 535.66508,361.33426 C 535.66508,357.42139 538.72189,355.54344 542.35342,355.54344 C 548.46067,355.54344 548.69913,359.77237 548.73386,362.23355 L 545.44673,362.23355 z M 518.29791,366.96635 C 518.29791,370.17375 518.29791,375.03092 522.32736,375.03092 C 525.44901,375.03092 525.88768,371.74414 525.88768,370.17375 L 529.16842,370.17375 C 529.16842,372.41277 527.83685,377.61257 522.12539,377.61257 C 517.00319,377.61257 514.85382,374.05226 514.85382,366.85226 C 514.85382,361.60745 515.86756,355.54344 522.32736,355.54344 C 528.73614,355.54344 529.32752,361.1408 529.32752,365.64292 L 529.32752,366.96635 L 518.29791,366.96635 z M 525.88768,364.39107 L 525.88768,363.24694 C 525.88768,360.91013 525.13933,358.12474 522.24764,358.12474 C 518.80177,358.12474 518.41413,362.3558 518.41413,363.608 L 518.41413,364.39107 L 525.88768,364.39107 z M 507.73142,377.06619 L 504.60338,377.06619 L 504.60338,374.48454 L 504.52401,374.48454 C 504.09988,376.04466 502.2563,377.61257 499.99106,377.61257 C 495.02157,377.61257 493.14362,373.18981 493.14362,366.57907 C 493.14362,362.19706 493.84909,355.54344 499.75437,355.54344 C 501.63232,355.54344 503.62472,356.67907 504.37307,358.47765 L 504.45031,358.47765 L 504.45031,349.1343 L 507.73142,349.1343 L 507.73142,377.06619 z M 500.4152,374.79245 C 504.05488,374.79245 504.64626,371.34623 504.64626,366.57907 C 504.64626,362.50674 503.93264,358.35541 500.4152,358.35541 C 497.36653,358.35541 496.58134,361.57096 496.58134,366.57907 C 496.58134,371.58505 497.36653,374.79245 500.4152,374.79245 z M 472.28949,356.09796 L 475.41752,356.09796 L 475.41752,358.55702 L 475.49724,358.55702 C 476.35366,356.64434 478.54768,355.54344 480.5826,355.54344 C 486.09421,355.54344 486.09421,359.7295 486.09421,362.19706 L 486.09421,377.06619 L 482.81346,377.06619 L 482.81346,362.59249 C 482.81346,360.98773 482.69724,358.35541 479.72016,358.35541 C 477.95842,358.35541 475.57661,359.53603 475.57661,362.59249 L 475.57661,377.06619 L 472.28949,377.06619 L 472.28949,356.09796 z M 450.88933,362.43552 C 450.88933,357.65773 452.92425,355.54344 457.93024,355.54344 C 464.31067,355.54344 464.31067,359.38509 464.31067,361.57096 L 464.31067,373.26706 C 464.31067,374.13198 464.31067,374.95155 465.32618,374.95155 C 465.75846,374.95155 465.95193,374.87218 466.10925,374.75773 L 466.10925,377.10269 C 465.87256,377.14556 465.01614,377.30253 464.1902,377.30253 C 462.93835,377.30253 461.37646,377.30253 461.21913,374.59863 L 461.13976,374.59863 C 460.08138,376.47694 458.05248,377.61257 456.09693,377.61257 C 452.18406,377.61257 450.38547,375.26159 450.38547,371.50533 C 450.38547,368.57111 451.62953,366.54222 454.33307,365.7145 L 458.7498,364.39107 C 461.13976,363.64273 461.13976,362.9819 461.13976,361.21804 C 461.13976,359.26249 459.96728,358.12474 457.77327,358.12474 C 454.1761,358.12474 454.1761,361.49123 454.1761,362.23355 L 454.1761,362.43552 L 450.88933,362.43552 z M 461.02354,365.64292 C 459.80819,366.92985 456.91685,367.20304 455.42831,368.10233 C 454.36992,368.76493 453.82354,369.59265 453.82354,371.43411 C 453.82354,373.5406 454.57189,375.03092 456.79461,375.03092 C 458.95177,375.03092 461.02354,373.18981 461.02354,371.03832 L 461.02354,365.64292 z M 438.72374,349.9971 L 442.01087,349.9971 L 442.01087,356.09796 L 445.64453,356.09796 L 445.64453,358.67962 L 442.01087,358.67962 L 442.01087,372.13958 C 442.01087,373.82194 442.44315,374.48454 444.16201,374.48454 C 444.86783,374.48454 445.25512,374.40517 445.60803,374.36229 L 445.60803,377.06619 C 445.17752,377.14556 444.3211,377.30253 442.94701,377.30253 C 439.54366,377.30253 438.72374,375.89371 438.72374,373.15296 L 438.72374,358.67962 L 435.67331,358.67962 L 435.67331,356.09796 L 438.72374,356.09796 L 438.72374,349.9971 z M 427.30083,362.23355 C 427.30083,359.57855 426.59535,358.12474 424.20752,358.12474 C 423.15126,358.12474 420.80417,358.40607 420.80417,361.33426 C 420.80417,363.80182 423.3876,364.27663 425.96925,365.13127 C 428.5098,365.99584 431.09146,366.89513 431.09146,371.03832 C 431.09146,375.46143 428.23661,377.61257 424.32374,377.61257 C 417.20913,377.61257 417.12976,372.32525 417.12976,370.17375 L 420.41689,370.17375 C 420.41689,372.72068 421.12236,375.03092 424.32374,375.03092 C 425.38,375.03092 427.80433,374.51926 427.80433,371.5482 C 427.80433,368.72808 425.22906,368.13883 422.68213,367.28241 C 420.14335,366.41997 417.51705,365.67977 417.51705,361.33426 C 417.51705,357.42139 420.57563,355.54344 424.20752,355.54344 C 430.31441,355.54344 430.55323,359.77237 430.58795,362.23355 L 427.30083,362.23355 z M 406.99343,377.06619 L 410.2802,377.06619 L 410.2802,349.1343 L 406.99343,349.1343 L 406.99343,377.06619 z M 388.64937,366.96635 C 388.64937,370.17375 388.64937,375.03092 392.67882,375.03092 C 395.80685,375.03092 396.23914,371.74414 396.23914,370.17375 L 399.52626,370.17375 C 399.52626,372.41277 398.19646,377.61257 392.485,377.61257 C 387.3628,377.61257 385.20528,374.05226 385.20528,366.85226 C 385.20528,361.60745 386.21902,355.54344 392.67882,355.54344 C 399.09575,355.54344 399.685,361.1408 399.685,365.64292 L 399.685,366.96635 L 388.64937,366.96635 z M 396.23914,364.39107 L 396.23914,363.24694 C 396.23914,360.91013 395.49894,358.12474 392.5991,358.12474 C 389.15323,358.12474 388.76559,362.3558 388.76559,363.608 L 388.76559,364.39107 L 396.23914,364.39107 z M 373.23386,349.9971 L 376.52099,349.9971 L 376.52099,356.09796 L 380.15465,356.09796 L 380.15465,358.67962 L 376.52099,358.67962 L 376.52099,372.13958 C 376.52099,373.82194 376.95327,374.48454 378.67213,374.48454 C 379.3776,374.48454 379.76701,374.40517 380.12595,374.36229 L 380.12595,377.06619 C 379.68764,377.14556 378.83122,377.30253 377.46492,377.30253 C 374.06158,377.30253 373.23386,375.89371 373.23386,373.15296 L 373.23386,358.67962 L 370.18343,358.67962 L 370.18343,356.09796 L 373.23386,356.09796 L 373.23386,349.9971 z M 359.58185,349.9971 L 362.86898,349.9971 L 362.86898,356.09796 L 366.50087,356.09796 L 366.50087,358.67962 L 362.86898,358.67962 L 362.86898,372.13958 C 362.86898,373.82194 363.29311,374.48454 365.02047,374.48454 C 365.72382,374.48454 366.11323,374.40517 366.46614,374.36229 L 366.46614,377.06619 C 366.03386,377.14556 365.17744,377.30253 363.80299,377.30253 C 360.40177,377.30253 359.58185,375.89371 359.58185,373.15296 L 359.58185,358.67962 L 356.53142,358.67962 L 356.53142,356.09796 L 359.58185,356.09796 L 359.58185,349.9971 z M 347.29437,349.1343 L 350.5815,349.1343 L 350.5815,352.88844 L 347.29437,352.88844 L 347.29437,349.1343 z M 347.29437,356.09796 L 350.5815,356.09796 L 350.5815,377.06619 L 347.29437,377.06619 L 347.29437,356.09796 z M 316.23268,349.1343 L 322.02351,349.1343 L 327.62087,371.27501 L 327.69847,371.27501 L 333.29583,349.1343 L 339.07886,349.1343 L 339.07886,377.06619 L 335.64079,377.06619 L 335.64079,352.65174 L 335.56142,352.65174 L 329.37481,377.06619 L 325.93674,377.06619 L 319.75012,352.65174 L 319.67855,352.65174 L 319.67855,377.06619 L 316.23268,377.06619 L 316.23268,349.1343 z M 292.68918,362.23355 C 292.68918,359.57855 291.9837,358.12474 289.58772,358.12474 C 288.53146,358.12474 286.1865,358.40607 286.1865,361.33426 C 286.1865,363.80182 288.7678,364.27663 291.35158,365.13127 C 293.89638,365.99584 296.47981,366.89513 296.47981,371.03832 C 296.47981,375.46143 293.62284,377.61257 289.70996,377.61257 C 282.58933,377.61257 282.50996,372.32525 282.50996,370.17375 L 285.79674,370.17375 C 285.79674,372.72068 286.50256,375.03092 289.70996,375.03092 C 290.7602,375.03092 293.19268,374.51926 293.19268,371.5482 C 293.19268,368.72808 290.60926,368.13883 288.06233,367.28241 C 285.52355,366.41997 282.9054,365.67977 282.9054,361.33426 C 282.9054,357.42139 285.95583,355.54344 289.58772,355.54344 C 295.69461,355.54344 295.93343,359.77237 295.9678,362.23355 L 292.68918,362.23355 z M 265.53221,366.96635 C 265.53221,370.17375 265.53221,375.03092 269.56166,375.03092 C 272.69146,375.03092 273.12162,371.74414 273.12162,370.17375 L 276.40272,370.17375 C 276.40272,372.41277 275.0793,377.61257 269.36784,377.61257 C 264.24563,377.61257 262.08811,374.05226 262.08811,366.85226 C 262.08811,361.60745 263.10965,355.54344 269.56166,355.54344 C 275.97859,355.54344 276.56784,361.1408 276.56784,365.64292 L 276.56784,366.96635 L 265.53221,366.96635 z M 273.12162,364.39107 L 273.12162,363.24694 C 273.12162,360.91013 272.38142,358.12474 269.48193,358.12474 C 266.03571,358.12474 265.65445,362.3558 265.65445,363.608 L 265.65445,364.39107 L 273.12162,364.39107 z M 254.97386,377.06619 L 251.83556,377.06619 L 251.83556,374.48454 L 251.76434,374.48454 C 251.33382,376.04466 249.4906,377.61257 247.225,377.61257 C 242.25375,377.61257 240.37792,373.18981 240.37792,366.57907 C 240.37792,362.19706 241.08126,355.54344 246.98867,355.54344 C 248.86662,355.54344 250.86504,356.67907 251.60701,358.47765 L 251.68461,358.47765 L 251.68461,349.1343 L 254.97386,349.1343 L 254.97386,377.06619 z M 247.64914,374.79245 C 251.28918,374.79245 251.88056,371.34623 251.88056,366.57907 C 251.88056,362.50674 251.17473,358.35541 247.64914,358.35541 C 244.60083,358.35541 243.81564,361.57096 243.81564,366.57907 C 243.81564,371.58505 244.60083,374.79245 247.64914,374.79245 z M 216.94851,349.1343 L 220.22749,349.1343 L 220.22749,352.88844 L 216.94851,352.88844 L 216.94851,349.1343 z M 216.94851,356.09796 L 220.22749,356.09796 L 220.22749,377.06619 L 216.94851,377.06619 L 216.94851,356.09796 z M 198.59631,366.96635 C 198.59631,370.17375 198.59631,375.03092 202.62575,375.03092 C 205.75591,375.03092 206.18607,371.74414 206.18607,370.17375 L 209.47319,370.17375 C 209.47319,372.41277 208.14339,377.61257 202.43194,377.61257 C 197.30973,377.61257 195.15257,374.05226 195.15257,366.85226 C 195.15257,361.60745 196.1741,355.54344 202.62575,355.54344 C 209.04268,355.54344 209.63229,361.1408 209.63229,365.64292 L 209.63229,366.96635 L 198.59631,366.96635 z M 206.18607,364.39107 L 206.18607,363.24694 C 206.18607,360.91013 205.44587,358.12474 202.55453,358.12474 C 199.10831,358.12474 198.7189,362.3558 198.7189,363.608 L 198.7189,364.39107 L 206.18607,364.39107 z M 183.18894,349.9971 L 186.47005,349.9971 L 186.47005,356.09796 L 190.10973,356.09796 L 190.10973,358.67962 L 186.47005,358.67962 L 186.47005,372.13958 C 186.47005,373.82194 186.9002,374.48454 188.62721,374.48454 C 189.32453,374.48454 189.72032,374.40517 190.07288,374.36229 L 190.07288,377.06619 C 189.6406,377.14556 188.77816,377.30253 187.41186,377.30253 C 184.00851,377.30253 183.18894,375.89371 183.18894,373.15296 L 183.18894,358.67962 L 180.13249,358.67962 L 180.13249,356.09796 L 183.18894,356.09796 L 183.18894,349.9971 z M 167.10446,356.09796 L 170.39158,356.09796 L 170.39158,359.226 L 170.4628,359.226 C 171.40497,357.23359 172.65682,355.54344 175.00178,355.54344 C 175.67075,355.54344 176.14591,355.62883 176.45595,355.77978 L 176.45595,358.9893 C 176.14591,358.95281 175.75012,358.83021 174.69387,358.83021 C 173.05261,358.83021 170.39158,360.31875 170.39158,363.80182 L 170.39158,377.06619 L 167.10446,377.06619 L 167.10446,356.09796 z M 145.70394,362.43552 C 145.70394,357.65773 147.73922,355.54344 152.7452,355.54344 C 159.12741,355.54344 159.12741,359.38509 159.12741,361.57096 L 159.12741,373.26706 C 159.12741,374.13198 159.12741,374.95155 160.14079,374.95155 C 160.57308,374.95155 160.7669,374.87218 160.92387,374.75773 L 160.92387,377.10269 C 160.68753,377.14556 159.83111,377.30253 159.00516,377.30253 C 157.75934,377.30253 156.19107,377.30253 156.0341,374.59863 L 155.95473,374.59863 C 154.89635,376.47694 152.86745,377.61257 150.9119,377.61257 C 146.99902,377.61257 145.20044,375.26159 145.20044,371.50533 C 145.20044,368.57111 146.45229,366.54222 149.14804,365.7145 L 153.57292,364.39107 C 155.95473,363.64273 155.95473,362.9819 155.95473,361.21804 C 155.95473,359.26249 154.78225,358.12474 152.59426,358.12474 C 148.99107,358.12474 148.99107,361.49123 148.99107,362.23355 L 148.99107,362.43552 L 145.70394,362.43552 z M 155.83851,365.64292 C 154.63131,366.92985 151.73182,367.20304 150.24292,368.10233 C 149.18489,368.76493 148.63816,369.59265 148.63816,371.43411 C 148.63816,373.5406 149.3865,375.03092 151.61737,375.03092 C 153.76674,375.03092 155.83851,373.18981 155.83851,371.03832 L 155.83851,365.64292 z M 124.69107,349.1343 L 131.81347,349.1343 C 134.23603,349.1343 140.4595,349.1343 140.4595,357.1482 C 140.4595,362.3558 137.1295,365.24749 132.40308,365.24749 L 128.13729,365.24749 L 128.13729,377.06619 L 124.69107,377.06619 L 124.69107,349.1343 z M 128.13729,362.43552 L 132.24398,362.43552 C 134.74804,362.43552 136.86233,360.71454 136.86233,356.99726 C 136.86233,353.93867 135.40851,351.94627 132.00729,351.94627 L 128.13729,351.94627 L 128.13729,362.43552 z M 93.51528,366.96635 C 93.51528,370.17375 93.51528,375.03092 97.54225,375.03092 C 100.67241,375.03092 101.10257,371.74414 101.10257,370.17375 L 104.39182,370.17375 C 104.39182,372.41277 103.06024,377.61257 97.34879,377.61257 C 92.22021,377.61257 90.06906,374.05226 90.06906,366.85226 C 90.06906,361.60745 91.0906,355.54344 97.54225,355.54344 C 103.95954,355.54344 104.54276,361.1408 104.54276,365.64292 L 104.54276,366.96635 L 93.51528,366.96635 z M 101.10257,364.39107 L 101.10257,363.24694 C 101.10257,360.91013 100.36237,358.12474 97.46288,358.12474 C 94.01879,358.12474 93.62938,362.3558 93.62938,363.608 L 93.62938,364.39107 L 101.10257,364.39107 z M 79.46572,349.1343 L 82.75284,349.1343 L 82.75284,352.88844 L 79.46572,352.88844 L 79.46572,349.1343 z M 79.46572,356.09796 L 82.75284,356.09796 L 82.75284,377.06619 L 79.46572,377.06619 L 79.46572,356.09796 z M 54.4684,349.1343 L 61.94158,349.1343 C 70.6241,349.1343 71.71721,355.39249 71.71721,363.096 C 71.71721,370.13938 69.96328,377.06619 62.2945,377.06619 L 54.4684,377.06619 L 54.4684,349.1343 z M 57.90611,374.24607 L 61.51143,374.24607 C 67.45922,374.24607 68.12217,368.13883 68.12217,363.13285 C 68.12217,357.73745 67.76926,351.94627 61.51143,351.94627 L 57.90611,351.94627 L 57.90611,374.24607 z M 47.367608,157.16147 L 115.97135,165.28309 L 116.16729,163.6358 L 47.561427,155.51384 L 47.367608,157.16147 z M 172.83009,38.56911 L 192.00788,95.74356 L 193.57579,95.21738 L 174.40615,38.04293 L 172.83009,38.56911 z M 72.23454,116.16506 L 127.19477,138.29974 L 127.82087,136.76017 L 72.85462,114.62584 L 72.23454,116.16506 z M 64.91229,140.90372 L 124.29493,160.08151 L 124.80481,158.49907 L 65.42395,139.32128 L 64.91229,140.90372 z M 92.73788,109.07915 L 128.15111,132.68821 L 129.0706,131.30773 L 93.66552,107.69868 L 92.73788,109.07915 z M 301.37737,158.49305 L 301.8465,160.08966 L 373.03366,139.06226 L 372.56453,137.47202 L 301.37737,158.49305 z M 140.52434,81.26171 L 163.39107,107.82128 L 164.65107,106.74234 L 141.79072,80.18313 L 140.52434,81.26171 z M 125.8345,84.2838 L 153.12611,109.73395 L 154.25572,108.5186 L 126.96446,83.06844 L 125.8345,84.2838 z M 239.06016,96.7364 L 240.21847,97.91525 L 285.96185,52.54498 L 284.79752,51.36648 L 239.06016,96.7364 z M 190.13772,48.0425 L 197.87843,91.56352 L 199.50977,91.27581 L 191.77119,47.74699 L 190.13772,48.0425 z M 126.3954,104.51998 L 123.81375,109.30982 C 123.81375,109.30982 121.60556,103.9651 117.91485,100.08872 C 117.91485,100.08872 92.65001,75.37911 66.09292,53.61151 C 66.09292,53.61151 64.05588,49.36592 67.38765,52.13502 C 67.38765,52.13502 98.36997,76.47789 121.05103,96.95077 C 121.05103,96.95077 124.3665,100.82892 126.3954,104.51998 z M 89.96064,35.00065 C 99.73591,20.41888 110.85729,19.31159 110.96536,19.30557 C 114.14442,18.80809 116.10209,20.21089 116.18146,20.26793 L 116.26721,20.32711 L 116.35261,20.36183 C 124.94973,23.76518 151.05434,51.4377 151.31335,51.71903 C 154.45768,55.13478 157.47127,56.719 159.8102,57.45919 C 152.53686,59.67376 147.15564,65.18537 146.8906,65.46494 C 144.76178,69.14148 143.40753,69.92632 143.38733,69.92632 C 138.10603,73.39273 132.94095,66.04781 132.72694,65.73175 L 132.10686,64.83884 L 131.50343,65.74628 C 122.63312,79.04714 113.37552,80.37695 111.9217,80.51336 C 102.39694,70.32813 79.06958,56.16447 74.07812,53.18526 C 81.92442,47.92026 89.62225,35.54703 89.96064,35.00065 L 89.96064,35.00065 z M 110.79209,17.83722 C 110.36194,17.87407 98.93867,18.95868 88.71658,34.20305 C 88.61489,34.36852 80.21371,47.96313 72.35076,52.61018 L 71.27217,53.24443 L 72.35076,53.87655 C 72.63847,54.04167 100.9658,70.73809 111.10213,81.77372 L 111.3243,82.02423 L 111.65666,82.01821 C 112.09497,82.01006 122.26001,81.5799 132.13556,67.34289 C 134.53969,70.39333 139.39473,74.3062 144.1417,71.19872 C 144.24375,71.15585 145.80351,70.28525 148.0691,66.33553 C 148.03438,66.40073 155.43635,58.73974 164.26981,58.03427 C 164.26981,58.03427 164.32083,58.03427 164.32083,58.02825 L 164.15359,56.56628 C 164.13304,56.56628 164.11887,56.57443 164.09654,56.57443 C 164.0395,56.58258 158.47048,57.30825 152.39406,50.71167 C 151.30733,49.55974 125.98544,22.71494 116.99288,19.04656 C 116.71969,18.84459 114.41158,17.26852 110.79209,17.83722 L 110.79209,17.83722 z M 276.88355,116.13671 L 277.64607,117.61108 L 329.65579,90.6784 L 328.89292,89.21218 L 276.88355,116.13671 z M 272.74815,112.48852 L 273.66162,113.87112 L 310.18213,89.53427 L 309.26264,88.14565 L 272.74815,112.48852 z M 237.4717,93.18246 L 238.86634,94.08777 L 267.99906,49.45167 L 266.61256,48.54636 L 237.4717,93.18246 z M 294.29961,153.7234 L 294.90304,155.26935 L 353.18512,132.40049 L 352.57532,130.8549 L 294.29961,153.7234 z M 212.08497,98.93077 C 215.55953,96.62832 220.57367,95.00124 227.81654,95.10931 L 227.85941,92.16092 C 217.6313,92.00998 211.35079,95.10931 207.47442,98.92262 C 162.23489,100.0664 125.77745,137.19848 125.77745,182.7197 C 125.77745,185.20958 125.90607,187.66261 126.12221,190.10112 C 126.61757,190.05647 127.10087,190.02175 127.5902,189.97887 C 128.08591,189.93387 128.57524,189.89135 129.06457,189.84848 C 128.85658,187.49714 128.72619,185.12171 128.72619,182.7197 C 128.72619,139.68021 162.49993,104.39738 204.93351,101.9649 C 201.45894,107.08108 201.27965,112.31738 201.27965,112.4173 L 204.23016,112.4825 C 204.23619,112.07254 204.46048,106.5549 208.68977,101.84266 C 208.99981,101.83628 209.30737,101.8221 209.62556,101.8221 C 253.63378,101.8221 289.51579,137.14143 290.48028,180.91509 C 290.98414,180.90694 291.47347,180.89277 291.95465,180.88639 C 292.46453,180.87009 292.94784,180.86407 293.42264,180.8499 C 292.44398,136.29317 256.5556,100.21734 212.08497,98.93077 z M 183.6556,125.32911 L 184.23068,122.4314 C 183.78599,122.34352 173.35414,120.3373 165.12623,125.86947 C 160.50753,128.97092 157.54284,133.78911 156.30694,140.19825 L 159.19863,140.76092 C 160.28324,135.15541 162.82414,130.97714 166.75119,128.33065 C 173.94516,123.48163 183.55568,125.30856 183.6556,125.32911 z M 214.19323,157.49171 C 217.77375,156.23986 219.19922,152.5938 219.25024,152.44285 L 216.50134,151.38482 C 216.48717,151.40714 215.47981,153.93139 213.1919,154.71447 C 211.63213,155.25482 209.7315,154.88171 207.56016,153.59301 L 206.06347,156.13994 C 209.02816,157.8875 211.7689,158.34813 214.19323,157.49171 z M 237.94473,146.6662 C 236.23402,146.84549 234.44146,145.91785 232.62268,143.91128 L 230.42867,145.89553 C 231.83146,147.42872 233.26296,148.47895 234.72315,149.06821 C 234.11938,152.26143 230.7589,166.23943 217.87579,169.98754 C 217.87579,169.98754 209.46646,174.43261 193.90603,167.89344 C 195.26028,165.01628 195.02146,161.58423 195.00729,161.38439 L 192.06493,161.62108 C 192.173,163.0097 191.99335,166.9084 189.90741,168.29702 C 187.97241,169.5836 184.75686,168.41112 182.41154,167.20427 L 181.05162,169.82844 C 185.49705,172.11635 189.02867,172.42639 191.5469,170.75006 C 191.81406,170.57076 192.0504,170.37482 192.28107,170.16683 C 194.15087,171.79214 200.56178,176.46789 211.42201,175.70714 C 211.42201,175.70714 232.01111,175.33191 238.04678,149.60856 C 238.12615,149.60856 238.19772,149.60856 238.27709,149.60041 C 242.80792,149.11108 245.59154,144.37226 245.71378,144.17029 L 243.16083,142.68777 C 243.13213,142.73065 240.99516,146.35013 237.94473,146.6662 z M 227.65142,130.15758 L 230.42052,127.01325 L 221.55835,131.6238 L 231.70922,132.17832 L 227.65142,130.15758 z M 185.05237,150.06954 L 175.6417,154.67974 L 180.62146,154.12521 L 179.88729,158.92321 L 185.05237,150.06954 z M 191.3676,145.90368 C 192.80725,145.90368 193.97158,144.7312 193.97158,143.29155 C 193.97158,141.85403 192.80725,140.68155 191.3676,140.68155 C 189.92158,140.68155 188.76363,141.85403 188.76363,143.29155 C 188.76363,144.7312 189.92158,145.90368 191.3676,145.90368 z M 212.76174,133.5875 C 214.19926,133.5875 215.36571,132.42317 215.36571,130.97714 C 215.36571,129.53785 214.19926,128.37317 212.76174,128.37317 C 211.32209,128.37317 210.14961,129.53785 210.14961,130.97714 C 210.14961,132.42317 211.32209,133.5875 212.76174,133.5875 z "
         style="fill:black;fill-rule:nonzero"
         id="_87798232" />
    </g>
  </g>
</svg>
