<?xml version="1.0" encoding="UTF-8" standalone="no"?>
<!-- Created with Inkscape (http://www.inkscape.org/) -->
<svg
   xmlns:svg="http://www.w3.org/2000/svg"
   xmlns="http://www.w3.org/2000/svg"
   version="1.0"
   width="500"
   height="204.89999"
   id="svg2"
   xml:space="preserve"><defs
     id="defs5"><clipPath
       id="clipPath21"><path
         d="M 0,595.276 L 841.89,595.276 L 841.89,0 L 0,0 L 0,595.276 z"
         id="path23" /></clipPath></defs><g
     transform="matrix(1.25,0,0,-1.25,37.165,660.32525)"
     id="g11"><g
       transform="matrix(3.0103717,0,0,3.0103717,67.77237,-772.62961)"
       id="g2514"><path
         d="M 97.827,380.34197 L -29.732,380.34197 L -29.732,384.38897 L 97.827,384.38897 L 97.827,380.34197 z"
         id="path15"
         style="fill:#009fda;fill-opacity:1;fill-rule:nonzero;stroke:none" /><g
         transform="translate(-386.898,83.569967)"
         id="g17"><g
           clip-path="url(#clipPath21)"
           id="g19"><g
             transform="translate(364.876,311.999)"
             id="g25"><path
               d="M 0,0 L 0.893,0 C 2.019,0 2.24,0.846 2.24,3.061 C 2.24,4.688 2.24,6.121 0.955,6.121 L 0,6.121 L 0,0 z M -1.848,7.479 L 1.236,7.479 C 3.659,7.479 4.112,5.863 4.112,3.109 C 4.112,1.75 4.32,-1.357 1.162,-1.357 L -1.848,-1.357 L -1.848,7.479 z"
               id="path27"
               style="fill:#104fa0;fill-opacity:1;fill-rule:nonzero;stroke:none" /></g><path
             d="M 372.256,310.642 L 370.53,310.642 L 370.53,316.822 L 372.256,316.822 L 372.256,310.642 z M 372.256,318.12 L 370.53,318.12 L 370.53,319.477 L 372.256,319.477 L 372.256,318.12 z"
             id="path29"
             style="fill:#104fa0;fill-opacity:1;fill-rule:nonzero;stroke:none" /><g
             transform="translate(376.9565,314.4229)"
             id="g31"><path
               d="M 0,0 C 0,0.6 0.024,1.457 -0.797,1.457 C -1.592,1.457 -1.58,0.525 -1.58,0 L 0,0 z M -1.58,-0.967 C -1.58,-1.701 -1.555,-2.803 -0.797,-2.803 C -0.185,-2.803 -0.062,-2.215 -0.062,-1.701 L 1.688,-1.701 C 1.664,-2.375 1.443,-2.926 1.027,-3.305 C 0.624,-3.684 0.012,-3.904 -0.797,-3.904 C -3.023,-3.904 -3.318,-2.547 -3.318,-0.611 C -3.318,1.078 -3.073,2.521 -0.797,2.521 C 1.529,2.521 1.786,1.016 1.725,-0.967 L -1.58,-0.967 z"
               id="path33"
               style="fill:#104fa0;fill-opacity:1;fill-rule:nonzero;stroke:none" /></g><g
             transform="translate(382.7207,310.6416)"
             id="g35"><path
               d="M 0,0 L 0,8.836 L 1.848,8.836 L 1.848,1.469 L 4.614,1.469 L 4.614,0 L 0,0 z"
               id="path37"
               style="fill:#104fa0;fill-opacity:1;fill-rule:nonzero;stroke:none" /></g><path
             d="M 389.93,310.642 L 388.204,310.642 L 388.204,316.822 L 389.93,316.822 L 389.93,310.642 z M 389.93,318.12 L 388.204,318.12 L 388.204,319.477 L 389.93,319.477 L 389.93,318.12 z"
             id="path39"
             style="fill:#104fa0;fill-opacity:1;fill-rule:nonzero;stroke:none" /><g
             transform="translate(394.6167,313.7861)"
             id="g41"><path
               d="M 0,0 C 0,1.236 0.013,2.094 -0.734,2.094 C -1.443,2.094 -1.431,1.236 -1.431,0 C -1.431,-1.555 -1.321,-2.203 -0.734,-2.203 C -0.11,-2.203 0,-1.555 0,0 M -3.157,5.691 L -1.431,5.691 L -1.431,2.449 L -1.407,2.449 C -1.052,2.975 -0.624,3.158 0,3.158 C 1.738,3.158 1.69,1.236 1.69,-0.012 C 1.69,-1.285 1.751,-3.268 -0.036,-3.268 C -0.697,-3.268 -1.174,-3.061 -1.493,-2.459 L -1.517,-2.459 L -1.517,-3.145 L -3.157,-3.145 L -3.157,5.691 z"
               id="path43"
               style="fill:#104fa0;fill-opacity:1;fill-rule:nonzero;stroke:none" /></g><g
             transform="translate(400.7495,314.4229)"
             id="g45"><path
               d="M 0,0 C 0,0.6 0.024,1.457 -0.795,1.457 C -1.591,1.457 -1.579,0.525 -1.579,0 L 0,0 z M -1.579,-0.967 C -1.579,-1.701 -1.555,-2.803 -0.795,-2.803 C -0.184,-2.803 -0.062,-2.215 -0.062,-1.701 L 1.688,-1.701 C 1.665,-2.375 1.445,-2.926 1.028,-3.305 C 0.624,-3.684 0.012,-3.904 -0.795,-3.904 C -3.023,-3.904 -3.317,-2.547 -3.317,-0.611 C -3.317,1.078 -3.072,2.521 -0.795,2.521 C 1.53,2.521 1.788,1.016 1.726,-0.967 L -1.579,-0.967 z"
               id="path47"
               style="fill:#104fa0;fill-opacity:1;fill-rule:nonzero;stroke:none" /></g><g
             transform="translate(405.3394,316.8213)"
             id="g49"><path
               d="M 0,0 L 0,-0.795 L 0.024,-0.795 C 0.343,-0.086 0.931,0.123 1.628,0.123 L 1.628,-1.42 C 0.11,-1.32 0.086,-2.203 0.086,-2.814 L 0.086,-6.18 L -1.64,-6.18 L -1.64,0 L 0,0 z"
               id="path51"
               style="fill:#104fa0;fill-opacity:1;fill-rule:nonzero;stroke:none" /></g><g
             transform="translate(409.2803,312.5615)"
             id="g53"><path
               d="M 0,0 C 0,-0.439 0.074,-0.979 0.637,-0.979 C 1.652,-0.979 1.494,0.393 1.494,1.066 C 0.637,1.029 0,1.102 0,0 M 3.183,-0.771 C 3.183,-1.15 3.232,-1.541 3.269,-1.92 L 1.666,-1.92 L 1.592,-1.102 L 1.567,-1.102 C 1.2,-1.738 0.698,-2.043 -0.048,-2.043 C -1.248,-2.043 -1.688,-1.15 -1.688,-0.072 C -1.688,1.971 -0.11,2.057 1.494,2.033 L 1.494,2.51 C 1.494,3.037 1.42,3.416 0.796,3.416 C 0.197,3.416 0.147,2.963 0.147,2.473 L -1.542,2.473 C -1.542,3.221 -1.31,3.697 -0.905,3.979 C -0.513,4.271 0.049,4.383 0.711,4.383 C 2.901,4.383 3.183,3.439 3.183,2.314 L 3.183,-0.771 z"
               id="path55"
               style="fill:#104fa0;fill-opacity:1;fill-rule:nonzero;stroke:none" /></g><path
             d="M 415.768,310.642 L 414.042,310.642 L 414.042,319.478 L 415.768,319.478 L 415.768,310.642 z"
             id="path57"
             style="fill:#104fa0;fill-opacity:1;fill-rule:nonzero;stroke:none" /><g
             transform="translate(420.4678,314.4229)"
             id="g59"><path
               d="M 0,0 C 0,0.6 0.024,1.457 -0.795,1.457 C -1.591,1.457 -1.579,0.525 -1.579,0 L 0,0 z M -1.579,-0.967 C -1.579,-1.701 -1.555,-2.803 -0.795,-2.803 C -0.184,-2.803 -0.062,-2.215 -0.062,-1.701 L 1.688,-1.701 C 1.665,-2.375 1.445,-2.926 1.028,-3.305 C 0.624,-3.684 0.012,-3.904 -0.795,-3.904 C -3.023,-3.904 -3.317,-2.547 -3.317,-0.611 C -3.317,1.078 -3.072,2.521 -0.795,2.521 C 1.531,2.521 1.788,1.016 1.726,-0.967 L -1.579,-0.967 z"
               id="path61"
               style="fill:#104fa0;fill-opacity:1;fill-rule:nonzero;stroke:none" /></g><g
             transform="translate(425.1426,316.1982)"
             id="g63"><path
               d="M 0,0 L 0.025,0 C 0.195,0.281 0.404,0.465 0.637,0.574 C 0.881,0.697 1.162,0.746 1.482,0.746 C 2.301,0.746 3.023,0.256 3.023,-0.6 L 3.023,-5.557 L 1.299,-5.557 L 1.299,-1.299 C 1.299,-0.746 1.201,-0.318 0.648,-0.318 C 0.098,-0.318 0,-0.746 0,-1.299 L 0,-5.557 L -1.725,-5.557 L -1.725,0.623 L 0,0.623 L 0,0 z"
               id="path65"
               style="fill:#104fa0;fill-opacity:1;fill-rule:nonzero;stroke:none" /></g><g
             transform="translate(363.6079,343.3789)"
             id="g67"><path
               d="M 0,0 C -0.14,1.012 -0.646,1.012 -1.686,1.041 C -2.22,1.068 -2.333,1.041 -2.333,1.687 C -2.333,2.249 -2.333,2.474 -1.827,2.474 C -0.225,2.474 1.405,2.417 3.007,2.417 C 6.435,2.417 9.836,2.474 13.264,2.474 C 13.602,2.474 13.771,2.417 13.771,2.108 C 13.771,1.968 13.489,-0.14 13.264,-2.079 C 13.236,-2.473 13.067,-2.585 12.365,-2.585 C 11.69,-2.585 11.69,-2.557 11.578,-2.051 C 11.185,0.113 11.156,0.281 10.286,0.45 C 9.049,0.674 7.223,0.674 6.323,0.674 C 5.171,0.674 5.143,0.422 5.115,0.169 C 5.059,-1.629 5.059,-4.917 5.031,-5.563 C 7.869,-5.536 9.218,-5.507 9.751,-5.03 C 10.033,-4.777 10.117,-4.412 10.229,-3.653 C 10.257,-3.372 10.341,-3.316 11.016,-3.316 C 11.663,-3.316 11.747,-3.568 11.747,-3.765 C 11.747,-4.524 11.663,-5.198 11.663,-6.52 C 11.663,-8.009 11.747,-9.021 11.747,-9.357 C 11.747,-9.864 11.466,-9.919 11.016,-9.919 C 10.313,-9.919 10.313,-9.807 10.145,-8.992 C 9.92,-7.98 9.751,-7.531 8.094,-7.418 C 7.784,-7.391 6.351,-7.278 5.059,-7.363 C 5.031,-8.402 4.974,-12.701 5.255,-13.433 C 5.452,-13.938 5.648,-13.938 7.56,-14.023 C 7.869,-14.023 8.009,-14.079 8.009,-14.669 C 8.009,-15.287 8.009,-15.456 7.475,-15.456 C 5.929,-15.456 4.384,-15.371 2.838,-15.371 C 1.236,-15.371 -0.393,-15.456 -1.995,-15.456 C -2.333,-15.456 -2.473,-15.371 -2.473,-15.063 C -2.473,-14.219 -2.473,-14.134 -2.136,-14.107 C -0.112,-13.826 -0.056,-13.826 0.029,-10.847 C 0.084,-8.739 0.141,-1.151 0,0"
               id="path69"
               style="fill:#104fa0;fill-opacity:1;fill-rule:nonzero;stroke:none" /></g><g
             transform="translate(387.4604,343.3232)"
             id="g71"><path
               d="M 0,0 C -0.197,-1.321 -0.168,-8.009 -0.141,-9.948 C -0.141,-13.264 -0.141,-13.658 2.08,-13.658 C 3.288,-13.658 4.468,-13.433 5.536,-12.898 C 8.318,-11.522 8.543,-7.644 8.543,-6.239 C 8.543,-3.878 7.953,-1.35 5.929,0.056 C 5.03,0.674 3.822,0.983 2.248,0.983 C 0.365,0.983 0.084,0.786 0,0 M 10.257,-13.405 C 7.418,-15.372 3.625,-15.372 0.787,-15.372 C -0.168,-15.372 -4.3,-15.344 -6.801,-15.372 L -7.643,-15.372 C -7.896,-15.372 -7.924,-15.259 -7.924,-14.585 C -7.924,-14.164 -7.924,-14.051 -7.531,-13.995 C -5.311,-13.742 -5.311,-13.742 -5.227,-10.763 C -5.171,-8.655 -5.114,-1.096 -5.255,0.056 C -5.396,1.067 -5.901,1.067 -6.941,1.096 C -7.475,1.096 -7.587,1.096 -7.587,1.771 C -7.587,2.36 -7.587,2.585 -7.082,2.585 C -5.874,2.585 -4.693,2.501 -3.484,2.501 C -1.574,2.501 0.365,2.585 2.276,2.585 C 6.07,2.585 8.374,2.333 10.173,1.236 C 13.348,-0.646 13.854,-3.766 13.854,-5.846 C 13.854,-8.009 13.32,-11.297 10.257,-13.405"
               id="path73"
               style="fill:#104fa0;fill-opacity:1;fill-rule:nonzero;stroke:none" /></g><g
             transform="translate(411.6563,336.5781)"
             id="g75"><path
               d="M 0,0 C 3.512,0 3.541,2.811 3.541,3.738 C 3.541,7.7 1.011,7.7 0.028,7.7 C -0.843,7.7 -1.04,7.7 -1.04,7.054 C -1.096,4.919 -1.125,2.192 -1.068,0.085 C -0.759,0.029 -0.45,0 0,0 M -1.04,-5.283 C -1.04,-7.081 -0.646,-7.194 0.814,-7.194 C 1.742,-7.194 1.798,-7.25 1.798,-7.755 C 1.798,-8.57 1.77,-8.655 1.208,-8.655 C -0.253,-8.655 -1.687,-8.57 -3.148,-8.57 C -4.75,-8.57 -6.379,-8.655 -7.982,-8.655 C -8.515,-8.655 -8.543,-8.599 -8.543,-8.037 C -8.543,-7.39 -8.543,-7.333 -7.869,-7.222 C -6.885,-7.109 -6.267,-7.025 -6.183,-5.564 C -6.071,-3.596 -6.071,-1.095 -6.071,3.289 L -6.071,5.424 C -6.071,7.447 -6.323,7.756 -7.56,7.813 C -8.459,7.869 -8.515,7.869 -8.515,8.516 C -8.515,9.19 -8.515,9.302 -7.982,9.302 C -7.054,9.302 -5.705,9.274 -2.473,9.274 C 3.063,9.274 4.889,9.274 6.772,8.15 C 8.374,7.195 8.908,5.537 8.908,4.131 C 8.908,0.169 5.254,-1.686 1.545,-1.686 C 0.674,-1.686 -0.113,-1.629 -1.068,-1.573 L -1.04,-5.283 z"
               id="path77"
               style="fill:#104fa0;fill-opacity:1;fill-rule:nonzero;stroke:none" /></g></g></g></g></g></svg>