<?xml version="1.0" encoding="UTF-8" standalone="no"?>
<!-- Created with Inkscape (http://www.inkscape.org/) -->

<svg
   xmlns:svg="http://www.w3.org/2000/svg"
   xmlns="http://www.w3.org/2000/svg"
   version="1.1"
   width="388.64331"
   height="146.48633"
   id="svg2">
  <defs
     id="defs4">
    <clipPath
       id="clipPath2834">
      <path
         d="M 0,689.449 0,0 l 1829.17,0 0,689.449 -1829.17,0 z"
         id="path2836" />
    </clipPath>
  </defs>
  <g
     transform="translate(-88.534057,-407.53793)"
     id="layer1">
    <g
       transform="matrix(0.67665395,0,0,0.67665395,28.627138,131.77578)"
       id="g3967">
      <path
         d="m 330.33052,507.48198 c -4.50904,0 -7.3228,-2.25452 -7.3228,-6.199 l 0.28228,-0.28228 1.12852,0 0.28072,0.28228 c 0,3.10076 1.97004,4.78945 5.912,4.78945 3.3865,0 5.07331,-1.68869 5.07331,-3.94322 0,-2.53524 -1.68681,-3.38178 -5.91828,-4.50779 -4.22551,-1.1282 -6.19555,-2.5365 -6.19555,-5.636 0,-1.97098 1.12852,-4.78851 6.47626,-4.78851 3.66753,0 6.76452,1.40924 6.76452,5.63474 l -0.28072,0.28229 -1.12977,0 -0.28072,-0.28229 c 0,-2.81721 -1.6865,-4.2255 -5.07331,-4.2255 -3.94196,0 -4.78945,1.69026 -4.78945,3.37927 0,2.5365 1.69246,3.38305 5.91797,4.5078 4.22551,1.1282 6.20026,2.25421 6.20026,5.63599 0,2.53399 -1.41049,5.35277 -7.04524,5.35277"
         id="path2838"
         style="fill:#231f20;fill-opacity:1;fill-rule:nonzero;stroke:none" />
      <path
         d="m 342.35706,500.15572 c 0,3.66376 1.96722,5.91671 4.78945,5.91671 2.81376,0 4.78851,-2.25295 4.78851,-5.91671 0,-3.6625 -1.97475,-5.91577 -4.78851,-5.91577 -2.82223,0 -4.78945,2.25327 -4.78945,5.91577 z m -1.69278,0 c 0,-4.78725 2.81502,-7.32407 6.48223,-7.32407 3.66157,0 6.47627,2.53682 6.47627,7.32407 0,4.78977 -2.8147,7.32626 -6.47627,7.32626 -3.66721,0 -6.48223,-2.53649 -6.48223,-7.32626"
         id="path2840"
         style="fill:#231f20;fill-opacity:1;fill-rule:nonzero;stroke:none" />
      <path
         d="m 367.37286,507.1997 -10.99002,0 -0.28354,-0.28198 0,-1.12726 0.28354,-0.563 8.73173,-10.42325 0,-0.28229 -8.44976,0 -0.28197,-0.28197 0,-0.84529 0.28197,-0.28072 10.1438,0 0.28071,0.28072 0,1.12726 -0.28071,0.563 -8.73456,10.42357 0,0.28197 9.29881,0 0.28198,0.28197 0,0.84529 -0.28198,0.28198"
         id="path2842"
         style="fill:#231f20;fill-opacity:1;fill-rule:nonzero;stroke:none" />
      <path
         d="m 372.67163,507.1997 -1.12852,0 -0.28355,-0.28198 0,-13.52306 0.28355,-0.28072 1.12852,0 0.27475,0.28072 0,13.52306 -0.27475,0.28198 z m 0,-16.34028 -1.12852,0 -0.28355,-0.28072 0,-1.69152 0.28355,-0.28103 1.12852,0 0.27475,0.28103 0,1.69152 -0.27475,0.28072"
         id="path2844"
         style="fill:#231f20;fill-opacity:1;fill-rule:nonzero;stroke:none" />
      <path
         d="m 385.9124,500.71998 -0.28354,-0.28229 c 0,0 -1.40421,-0.28197 -3.09573,-0.28197 -3.38053,0 -4.50905,1.12726 -4.50905,3.0995 0,1.69027 0.8478,2.81721 3.37927,2.81721 3.10453,0 4.50905,-2.25295 4.50905,-4.2255 l 0,-1.12695 z m 1.41049,6.47972 -0.8478,0 -0.28071,-0.28198 -0.28198,-1.40923 -0.28354,0 c -0.55672,0.84623 -1.68524,1.97349 -4.50622,1.97349 -3.09856,0 -4.78506,-1.69152 -4.78506,-4.22676 0,-3.0995 2.25076,-4.50779 5.91201,-4.50779 1.69403,0 3.37927,0.28228 3.37927,0.28228 l 0.28354,-0.28228 0,-0.84498 c 0,-2.53398 -0.84026,-3.6625 -3.66281,-3.6625 -2.81345,0 -3.66125,1.40798 -3.66125,2.81753 l -0.28072,0.28197 -1.12977,0 -0.28072,-0.28197 c 0,-2.25327 1.69121,-4.22583 5.35246,-4.22583 4.2255,0 5.35402,1.97256 5.35402,5.0708 l 0,9.01527 -0.28072,0.28198"
         id="path2846"
         style="fill:#231f20;fill-opacity:1;fill-rule:nonzero;stroke:none" />
      <path
         d="m 392.96392,507.1997 -1.12727,0 -0.28354,-0.28198 0,-19.1578 0.28354,-0.28198 1.12727,0 0.27569,0.28198 0,19.1578 -0.27569,0.28198"
         id="path2848"
         style="fill:#231f20;fill-opacity:1;fill-rule:nonzero;stroke:none" />
      <path
         d="m 398.68093,500.15572 c 0,3.94448 1.68649,5.91671 4.50685,5.91671 2.81344,0 4.50905,-1.97223 4.50905,-5.91671 0,-3.94353 -1.69561,-5.91577 -4.50905,-5.91577 -2.82036,0 -4.50685,1.97224 -4.50685,5.91577 z m 8.73329,-5.0708 0.28261,0 0,-7.325 0.27946,-0.28198 1.12412,0 0.2826,0.28198 0,19.1578 -0.2826,0.28198 -0.84152,0 -0.2826,-0.28198 -0.27946,-1.69026 -0.28261,0 c -0.5652,1.12726 -1.97506,2.25452 -4.50904,2.25452 -3.94354,0 -5.91703,-3.09824 -5.91703,-7.32626 0,-4.22551 1.97349,-7.32407 5.91703,-7.32407 2.53398,0 3.94384,1.12727 4.50904,2.25327"
         id="path2850"
         style="fill:#231f20;fill-opacity:1;fill-rule:nonzero;stroke:none" />
      <path
         d="m 423.87414,499.02971 c 0,-1.97223 -1.12726,-4.78976 -4.50905,-4.78976 -3.37865,0 -4.50591,2.81753 -4.50591,4.78976 l 0.2826,0.28198 8.44976,0 0.2826,-0.28198 z m -8.73236,1.69027 -0.2826,0.28072 c 0,1.69152 1.12726,5.07173 4.78851,5.07173 2.25766,0 3.37865,-1.12694 3.94385,-2.81721 l 0.2826,-0.28103 1.12726,0 0.2826,0.28103 c -0.2826,1.69027 -1.69246,4.22676 -5.63631,4.22676 -4.50591,0 -6.47469,-3.38178 -6.47469,-7.32626 l 0,-0.56175 c 0,-3.94604 2.24824,-6.76232 6.19209,-6.76232 3.94385,0 6.20151,2.81628 6.20151,6.76232 l 0,0.84372 -0.2826,0.28229 -10.14222,0"
         id="path2852"
         style="fill:#231f20;fill-opacity:1;fill-rule:nonzero;stroke:none" />
      <path
         d="m 439.74059,506.91772 -0.2826,0.28198 -1.1304,0 -0.27946,-0.28198 0,-9.2963 c 0,-1.97349 -0.84781,-3.38147 -3.09919,-3.38147 -2.53713,0 -3.95013,1.40798 -3.95013,4.22676 l 0,8.45101 -0.27318,0.28198 -1.1304,0 -0.2826,-0.28198 0,-13.52306 0.2826,-0.28072 0.8478,0 0.2826,0.28072 0.27318,1.40955 0.2826,0 c 0.5652,-1.12727 1.97507,-1.97256 3.95013,-1.97256 2.25139,0 3.37865,1.12727 3.94385,2.25327 l 0.2826,0 c 0.83838,-1.40798 2.25138,-2.25327 4.22331,-2.25327 3.09918,0 4.79165,1.69027 4.79165,4.78977 l 0,9.2963 -0.2826,0.28198 -1.12727,0 -0.2826,-0.28198 0,-9.2963 c 0,-1.97349 -0.8478,-3.38147 -3.09918,-3.38147 -2.53713,0 -3.94071,1.40798 -3.94071,4.22676 l 0,8.45101"
         id="path2854"
         style="fill:#231f20;fill-opacity:1;fill-rule:nonzero;stroke:none" />
      <path
         d="m 453.75444,500.15572 c 0,3.66376 1.96564,5.91671 4.78851,5.91671 2.81344,0 4.78851,-2.25295 4.78851,-5.91671 0,-3.6625 -1.97507,-5.91577 -4.78851,-5.91577 -2.82287,0 -4.78851,2.25327 -4.78851,5.91577 z m -1.69561,0 c 0,-4.78725 2.81659,-7.32407 6.48412,-7.32407 3.66124,0 6.47469,2.53682 6.47469,7.32407 0,4.78977 -2.81345,7.32626 -6.47469,7.32626 -3.66753,0 -6.48412,-2.53649 -6.48412,-7.32626"
         id="path2856"
         style="fill:#231f20;fill-opacity:1;fill-rule:nonzero;stroke:none" />
      <path
         d="m 479.19163,507.1997 -0.5652,0 -0.56206,-0.28198 -5.07425,-6.48003 -0.27946,0 -1.96879,1.97224 -0.2826,0.56426 0,3.94353 -0.2826,0.28198 -1.12726,0 -0.2826,-0.28198 0,-19.1578 0.2826,-0.28198 1.12726,0 0.2826,0.28198 0,12.3958 0.2826,0 6.7573,-6.76106 0.5652,-0.28072 0.56206,0 0.2826,0.28072 0,0.84529 -4.78851,4.78976 0,0.28198 5.35371,6.76074 0,0.84529 -0.2826,0.28198"
         id="path2858"
         style="fill:#231f20;fill-opacity:1;fill-rule:nonzero;stroke:none" />
      <path
         d="m 489.97441,493.11394 0.2826,0.28072 0,0.84529 -0.2826,0.28197 -1.40672,0 c -2.81973,0 -3.94699,1.9713 -3.94699,4.78977 l 0,7.60603 -0.27632,0.28198 -1.1304,0 -0.2826,-0.28198 0,-13.52306 0.2826,-0.28072 0.8478,0 0.2826,0.28072 0.27632,1.69026 0.27946,0 c 0.8478,-1.40798 2.25766,-1.97098 3.95013,-1.97098 l 1.12412,0"
         id="path2860"
         style="fill:#231f20;fill-opacity:1;fill-rule:nonzero;stroke:none" />
      <path
         d="m 502.07913,500.71998 -0.2826,-0.28229 c 0,0 -1.40358,-0.28197 -3.09604,-0.28197 -3.37865,0 -4.50905,1.12726 -4.50905,3.0995 0,1.69027 0.8478,2.81721 3.38179,2.81721 3.10232,0 4.5059,-2.25295 4.5059,-4.2255 l 0,-1.12695 z m 1.40987,6.47972 -0.84466,0 -0.2826,-0.28198 -0.28261,-1.40923 -0.2826,0 c -0.55578,0.84623 -1.68618,1.97349 -4.5059,1.97349 -3.09919,0 -4.78537,-1.69152 -4.78537,-4.22676 0,-3.0995 2.25138,-4.50779 5.91263,-4.50779 1.69246,0 3.37864,0.28228 3.37864,0.28228 l 0.2826,-0.28228 0,-0.84498 c 0,-2.53398 -0.83838,-3.6625 -3.66124,-3.6625 -2.81345,0 -3.66125,1.40798 -3.66125,2.81753 l -0.2826,0.28197 -1.12726,0 -0.2826,-0.28197 c 0,-2.25327 1.69246,-4.22583 5.35371,-4.22583 4.22645,0 5.35371,1.97256 5.35371,5.0708 l 0,9.01527 -0.2826,0.28198"
         id="path2862"
         style="fill:#231f20;fill-opacity:1;fill-rule:nonzero;stroke:none" />
      <path
         d="m 514.75534,507.1997 -1.97506,0 c -1.96879,0 -3.37865,-1.12727 -3.37865,-3.0995 l 0,-9.29599 -0.2826,-0.28229 -2.24825,0 -0.2826,-0.28197 0,-0.84529 0.2826,-0.28072 2.24825,0 0.2826,-0.28229 0,-2.53524 0.2826,-0.28197 1.12726,0 0.2826,0.28197 0,2.53524 0.2826,0.28229 3.37865,0 0.2826,0.28072 0,0.84529 -0.2826,0.28197 -3.37865,0 -0.2826,0.28229 0,9.29599 c 0,1.12726 0.55892,1.69026 1.68619,1.69026 l 1.97506,0 0.2826,0.28197 0,0.84529 -0.2826,0.28198"
         id="path2864"
         style="fill:#231f20;fill-opacity:1;fill-rule:nonzero;stroke:none" />
      <path
         d="m 520.03683,507.1997 -1.12726,0 -0.2826,-0.28198 0,-13.52306 0.2826,-0.28072 1.12726,0 0.2826,0.28072 0,13.52306 -0.2826,0.28198 z m 0,-16.34028 -1.12726,0 -0.2826,-0.28072 0,-1.69152 0.2826,-0.28103 1.12726,0 0.2826,0.28103 0,1.69152 -0.2826,0.28072"
         id="path2866"
         style="fill:#231f20;fill-opacity:1;fill-rule:nonzero;stroke:none" />
      <path
         d="m 529.33439,507.48198 c -3.37865,0 -5.34743,-1.97349 -5.34743,-4.50779 l 0.27632,-0.28197 1.12726,0 0.2826,0.28197 c 0,1.68901 1.12726,3.09824 3.66125,3.09824 2.81973,0 3.66753,-1.12694 3.66753,-2.53524 0,-2.25421 -1.40987,-2.53649 -4.23273,-3.0995 -2.81345,-0.563 -4.50591,-1.69026 -4.50591,-3.94447 0,-1.9713 1.69246,-3.66157 4.78851,-3.66157 2.81972,0 5.07111,1.12727 5.07111,3.94354 l -0.2826,0.28229 -1.12098,0 -0.2826,-0.28229 c 0,-1.40672 -0.84467,-2.53524 -3.38493,-2.53524 -1.96879,0 -3.09605,0.84497 -3.09605,2.25327 0,1.97349 1.69247,2.25421 4.50591,2.81847 2.81659,0.563 4.22645,1.68901 4.22645,4.2255 0,2.25327 -1.68618,3.94479 -5.35371,3.94479"
         id="path2868"
         style="fill:#231f20;fill-opacity:1;fill-rule:nonzero;stroke:none" />
      <path
         d="m 544.07672,506.07243 c 2.81658,0 3.94385,-1.68869 4.22645,-3.38021 l 0.2826,-0.28229 1.12726,0 0.2826,0.28229 c -0.2826,2.81627 -2.54026,4.78976 -5.91891,4.78976 -3.66125,0 -6.47469,-2.25452 -6.47469,-7.32626 0,-5.0708 2.81344,-7.32407 6.47469,-7.32407 3.37865,0 5.63631,1.97256 5.91891,4.78977 l -0.2826,0.28103 -1.12726,0 -0.2826,-0.28103 c -0.2826,-1.69121 -1.40987,-3.38147 -4.22645,-3.38147 -2.81345,0 -4.78851,1.97224 -4.78851,5.91577 0,3.94448 1.97506,5.91671 4.78851,5.91671"
         id="path2870"
         style="fill:#231f20;fill-opacity:1;fill-rule:nonzero;stroke:none" />
      <path
         d="m 564.96404,507.1997 -1.12098,0 -0.2826,-0.28198 0,-8.45101 c 0,-2.81878 -1.40986,-4.22676 -3.66753,-4.22676 -3.09605,0 -4.50591,1.97224 -4.50591,5.07174 l 0,7.60603 -0.27632,0.28198 -1.1304,0 -0.27946,-0.28198 0,-19.1578 0.27946,-0.28198 1.1304,0 0.27632,0.28198 0,7.325 0.2826,0 c 0.84466,-1.40798 2.53713,-2.25327 4.50591,-2.25327 3.10233,0 5.07111,1.97256 5.07111,5.63506 l 0,8.45101 -0.2826,0.28198"
         id="path2872"
         style="fill:#231f20;fill-opacity:1;fill-rule:nonzero;stroke:none" />
      <path
         d="m 579.65927,499.02971 c 0,-1.97223 -1.12726,-4.78976 -4.50591,-4.78976 -3.38179,0 -4.50905,2.81753 -4.50905,4.78976 l 0.2826,0.28198 8.44976,0 0.2826,-0.28198 z m -8.73236,1.69027 -0.2826,0.28072 c 0,1.69152 1.12726,5.07173 4.78851,5.07173 2.25767,0 3.38179,-1.12694 3.94385,-2.81721 l 0.2826,-0.28103 1.1304,0 0.27946,0.28103 c -0.27946,1.69027 -1.69246,4.22676 -5.63631,4.22676 -4.50591,0 -6.47469,-3.38178 -6.47469,-7.32626 l 0,-0.56175 c 0,-3.94604 2.25138,-6.76232 6.19523,-6.76232 3.94071,0 6.19837,2.81628 6.19837,6.76232 l 0,0.84372 -0.2826,0.28229 -10.14222,0"
         id="path2874"
         style="fill:#231f20;fill-opacity:1;fill-rule:nonzero;stroke:none" />
      <path
         d="m 602.4934,488.88718 -6.76672,0 -0.27946,0.28197 0,7.32407 0.27946,0.28197 6.48412,0 c 2.81344,0 4.5059,-0.84498 4.5059,-3.94354 0,-3.0995 -1.69246,-3.94447 -4.2233,-3.94447 z m -0.2826,9.29724 -6.48412,0 -0.27946,0.28229 0,8.45101 -0.2826,0.28198 -1.12412,0 -0.2826,-0.28198 0,-19.1578 0.2826,-0.28198 8.1703,0 c 4.22644,0 6.19209,1.69121 6.19209,5.35371 0,3.66157 -1.96565,5.35277 -6.19209,5.35277"
         id="path2876"
         style="fill:#231f20;fill-opacity:1;fill-rule:nonzero;stroke:none" />
      <path
         d="m 619.68179,500.71998 -0.2826,-0.28229 c 0,0 -1.40358,-0.28197 -3.09605,-0.28197 -3.37864,0 -4.50591,1.12726 -4.50591,3.0995 0,1.69027 0.84467,2.81721 3.37865,2.81721 3.10233,0 4.50591,-2.25295 4.50591,-4.2255 l 0,-1.12695 z m 1.40986,6.47972 -0.84466,0 -0.2826,-0.28198 -0.2826,-1.40923 -0.2826,0 c -0.55578,0.84623 -1.68618,1.97349 -4.50591,1.97349 -3.09605,0 -4.78537,-1.69152 -4.78537,-4.22676 0,-3.0995 2.25139,-4.50779 5.91263,-4.50779 1.69247,0 3.37865,0.28228 3.37865,0.28228 l 0.2826,-0.28228 0,-0.84498 c 0,-2.53398 -0.83838,-3.6625 -3.66125,-3.6625 -2.81344,0 -3.66124,1.40798 -3.66124,2.81753 l -0.2826,0.28197 -1.12727,0 -0.2826,-0.28197 c 0,-2.25327 1.69247,-4.22583 5.35371,-4.22583 4.22645,0 5.35371,1.97256 5.35371,5.0708 l 0,9.01527 -0.2826,0.28198"
         id="path2878"
         style="fill:#231f20;fill-opacity:1;fill-rule:nonzero;stroke:none" />
      <path
         d="m 632.37056,493.11394 0.2826,0.28072 0,0.84529 -0.2826,0.28197 -1.40987,0 c -2.81344,0 -3.94384,1.9713 -3.94384,4.78977 l 0,7.60603 -0.28261,0.28198 -1.12726,0 -0.2826,-0.28198 0,-13.52306 0.2826,-0.28072 0.8478,0 0.27946,0.28072 0.28261,1.69026 0.2826,0 c 0.8478,-1.40798 2.25138,-1.97098 3.94384,-1.97098 l 1.12727,0"
         id="path2880"
         style="fill:#231f20;fill-opacity:1;fill-rule:nonzero;stroke:none" />
      <path
         d="m 643.1659,507.1997 -1.97507,0 c -1.96878,0 -3.37864,-1.12727 -3.37864,-3.0995 l 0,-9.29599 -0.2826,-0.28229 -2.25139,0 -0.2826,-0.28197 0,-0.84529 0.2826,-0.28072 2.25139,0 0.2826,-0.28229 0,-2.53524 0.2826,-0.28197 1.12726,0 0.2826,0.28197 0,2.53524 0.2826,0.28229 3.37865,0 0.2826,0.28072 0,0.84529 -0.2826,0.28197 -3.37865,0 -0.2826,0.28229 0,9.29599 c 0,1.12726 0.55892,1.69026 1.68618,1.69026 l 1.97507,0 0.2826,0.28197 0,0.84529 -0.2826,0.28198"
         id="path2882"
         style="fill:#231f20;fill-opacity:1;fill-rule:nonzero;stroke:none" />
      <path
         d="m 656.13098,499.02971 c 0,-1.97223 -1.1304,-4.78976 -4.50905,-4.78976 -3.38492,0 -4.5059,2.81753 -4.5059,4.78976 l 0.27946,0.28198 8.45289,0 0.2826,-0.28198 z m -8.73549,1.69027 -0.27946,0.28072 c 0,1.69152 1.12098,5.07173 4.78851,5.07173 2.25138,0 3.37864,-1.12694 3.94384,-2.81721 l 0.2826,-0.28103 1.12099,0 0.2826,0.28103 c -0.2826,1.69027 -1.68619,4.22676 -5.63003,4.22676 -4.50905,0 -6.48098,-3.38178 -6.48098,-7.32626 l 0,-0.56175 c 0,-3.94604 2.25453,-6.76232 6.19837,-6.76232 3.94385,0 6.19524,2.81628 6.19524,6.76232 l 0,0.84372 -0.2826,0.28229 -10.13908,0"
         id="path2884"
         style="fill:#231f20;fill-opacity:1;fill-rule:nonzero;stroke:none" />
      <path
         d="m 662.61824,507.1997 -1.12727,0 -0.2826,-0.28198 0,-13.52306 0.2826,-0.28072 1.12727,0 0.27632,0.28072 0,13.52306 -0.27632,0.28198 z m 0,-16.34028 -1.12727,0 -0.2826,-0.28072 0,-1.69152 0.2826,-0.28103 1.12727,0 0.27632,0.28103 0,1.69152 -0.27632,0.28072"
         id="path2886"
         style="fill:#231f20;fill-opacity:1;fill-rule:nonzero;stroke:none" />
      <path
         d="m 324.41852,530.99623 c 0,3.94354 1.6865,5.91829 4.50622,5.91829 2.81627,0 4.50905,-1.97475 4.50905,-5.91829 0,-3.94322 -1.69278,-5.9142 -4.50905,-5.9142 -2.81972,0 -4.50622,1.97098 -4.50622,5.9142 z m 8.73173,-5.07173 0.28354,0 0,-7.3225 0.28072,-0.28229 1.12224,0 0.28354,0.28229 0,19.15655 -0.28354,0.28072 -0.83901,0 -0.28323,-0.28072 -0.28072,-1.69026 -0.28354,0 c -0.56426,1.12851 -1.97475,2.25421 -4.50622,2.25421 -3.94479,0 -5.91954,-3.10076 -5.91954,-7.32627 0,-4.2255 1.97475,-7.32249 5.91954,-7.32249 2.53147,0 3.94196,1.12475 4.50622,2.25076"
         id="path2888"
         style="fill:#231f20;fill-opacity:1;fill-rule:nonzero;stroke:none" />
      <path
         d="m 349.61079,529.86803 c 0,-1.96878 -1.12852,-4.786 -4.50622,-4.786 -3.37928,0 -4.50905,2.81722 -4.50905,4.786 l 0.28354,0.28197 8.45101,0 0.28072,-0.28197 z m -8.73173,1.69246 -0.28354,0.28229 c 0,1.69026 1.12977,5.07174 4.78976,5.07174 2.2583,0 3.38054,-1.12852 3.94479,-2.81753 l 0.28072,-0.28323 1.12978,0 0.28071,0.28323 c -0.28071,1.68901 -1.69121,4.22551 -5.636,4.22551 -4.50622,0 -6.47626,-3.38273 -6.47626,-7.32627 l 0,-0.56394 c 0,-3.94354 2.25201,-6.75855 6.19555,-6.75855 3.94196,0 6.20025,2.81501 6.20025,6.75855 l 0,0.84623 -0.28354,0.28197 -10.14222,0"
         id="path2890"
         style="fill:#231f20;fill-opacity:1;fill-rule:nonzero;stroke:none" />
      <path
         d="m 362.09106,523.95351 0.28354,0.28198 0,0.84654 -0.28354,0.27821 -1.40327,0 c -2.82224,0 -3.95075,1.97475 -3.95075,4.78976 l 0,7.60855 -0.2757,0.28072 -1.12726,0 -0.28354,-0.28072 0,-13.52306 0.28354,-0.28198 0.84498,0 0.28228,0.28198 0.2757,1.68901 0.28354,0 c 0.84497,-1.40673 2.25546,-1.97099 3.9495,-1.97099 l 1.12098,0"
         id="path2892"
         style="fill:#231f20;fill-opacity:1;fill-rule:nonzero;stroke:none" />
      <path
         d="m 380.69214,538.3225 c -4.50653,0 -7.32281,-2.25421 -7.32281,-6.19775 l 0.28355,-0.28197 1.12695,0 0.28354,0.28197 c 0,3.09699 1.96721,4.78977 5.912,4.78977 3.38399,0 5.07048,-1.69278 5.07048,-3.94573 0,-2.5365 -1.68649,-3.38054 -5.91671,-4.5078 -4.22551,-1.126 -6.19429,-2.53649 -6.19429,-5.63348 0,-1.97475 1.12852,-4.78977 6.47626,-4.78977 3.66753,0 6.76452,1.40798 6.76452,5.636 l -0.28197,0.27977 -1.12852,0 -0.28355,-0.27977 c 0,-2.82098 -1.68649,-4.22802 -5.07048,-4.22802 -3.94479,0 -4.79102,1.68901 -4.79102,3.38179 0,2.53273 1.69403,3.37927 5.91954,4.50748 4.22551,1.126 6.20026,2.25326 6.20026,5.6338 0,2.53524 -1.41049,5.35371 -7.04775,5.35371"
         id="path2894"
         style="fill:#231f20;fill-opacity:1;fill-rule:nonzero;stroke:none" />
      <path
         d="m 397.50813,536.91452 c 2.81627,0 3.94479,-1.69278 4.22551,-3.38148 l 0.28354,-0.28354 1.12036,0 0.2826,0.28354 c -0.2826,2.81722 -2.53148,4.78946 -5.91201,4.78946 -3.66721,0 -6.48097,-2.25421 -6.48097,-7.32627 0,-5.07173 2.81376,-7.32249 6.48097,-7.32249 3.38053,0 5.62941,1.96878 5.91201,4.78725 l -0.2826,0.28229 -1.12036,0 -0.28354,-0.28229 c -0.28072,-1.69026 -1.40924,-3.37896 -4.22551,-3.37896 -2.81972,0 -4.78976,1.97098 -4.78976,5.9142 0,3.94354 1.97004,5.91829 4.78976,5.91829"
         id="path2896"
         style="fill:#231f20;fill-opacity:1;fill-rule:nonzero;stroke:none" />
      <path
         d="m 418.39797,538.03927 -1.13041,0 -0.27946,-0.28072 0,-8.45101 c 0,-2.81879 -1.413,-4.22551 -3.66124,-4.22551 -3.09919,0 -4.50905,1.97098 -4.50905,5.06797 l 0,7.60855 -0.2826,0.28072 -1.12727,0 -0.2826,-0.28072 0,-19.15655 0.2826,-0.28229 1.12727,0 0.2826,0.28229 0,7.3225 0.2826,0 c 0.84466,-1.40673 2.53084,-2.25076 4.50591,-2.25076 3.09918,0 5.07425,1.96878 5.07425,5.6338 l 0,8.45101 -0.2826,0.28072"
         id="path2898"
         style="fill:#231f20;fill-opacity:1;fill-rule:nonzero;stroke:none" />
      <path
         d="m 436.89888,537.75855 -0.2826,0.28072 -1.40986,0 -0.2826,-0.28072 -3.37865,-11.2698 -0.2826,0 -3.37864,11.2698 -0.2826,0.28072 -1.40987,0 -0.2826,-0.28072 -3.94385,-12.67652 0,-0.84654 0.2826,-0.28198 0.84781,0 0.2826,0.28198 3.37864,11.26854 0.2826,0 3.37865,-11.26854 0.2826,-0.28198 1.40986,0 0.2826,0.28198 3.37865,11.26854 0.2826,0 3.37865,-11.26854 0.2826,-0.28198 0.84466,0 0.2826,0.28198 0,0.84654 -3.94385,12.67652"
         id="path2900"
         style="fill:#231f20;fill-opacity:1;fill-rule:nonzero;stroke:none" />
      <path
         d="m 454.23172,529.86803 c 0,-1.96878 -1.1304,-4.786 -4.50905,-4.786 -3.37865,0 -4.50591,2.81722 -4.50591,4.786 l 0.2826,0.28197 8.44976,0 0.2826,-0.28197 z m -8.73236,1.69246 -0.2826,0.28229 c 0,1.69026 1.12726,5.07174 4.78851,5.07174 2.25766,0 3.37865,-1.12852 3.94385,-2.81753 l 0.2826,-0.28323 1.12726,0 0.2826,0.28323 c -0.2826,1.68901 -1.69246,4.22551 -5.63631,4.22551 -4.50591,0 -6.47469,-3.38273 -6.47469,-7.32627 l 0,-0.56394 c 0,-3.94354 2.24824,-6.75855 6.19209,-6.75855 3.94385,0 6.20151,2.81501 6.20151,6.75855 l 0,0.84623 -0.2826,0.28197 -10.14222,0"
         id="path2902"
         style="fill:#231f20;fill-opacity:1;fill-rule:nonzero;stroke:none" />
      <path
         d="m 461.08321,538.03927 -1.1304,0 -0.2826,-0.28072 0,-13.52306 0.2826,-0.28198 1.1304,0 0.27318,0.28198 0,13.52306 -0.27318,0.28072 z m 0,-16.34028 -1.1304,0 -0.2826,-0.28197 0,-1.68901 0.2826,-0.28229 1.1304,0 0.27318,0.28229 0,1.68901 -0.27318,0.28197"
         id="path2904"
         style="fill:#231f20;fill-opacity:1;fill-rule:nonzero;stroke:none" />
      <path
         d="m 476.18664,538.03927 -10.98374,0 -0.2826,-0.28072 0,-1.12601 0.2826,-0.56425 8.73236,-10.42577 0,-0.28228 -8.44976,0 -0.2826,-0.27821 0,-0.84654 0.2826,-0.28198 10.14222,0 0.2826,0.28198 0,1.12475 -0.2826,0.56426 -8.73236,10.42576 0,0.28228 9.29128,0 0.2826,0.28198 0,0.84403 -0.2826,0.28072"
         id="path2906"
         style="fill:#231f20;fill-opacity:1;fill-rule:nonzero;stroke:none" />
      <path
         d="m 281.63593,430.67303 c 0.0207,0.006 0.0393,0.0148 0.054,0.021 0.3162,0.15072 0.62675,0.29422 0.92944,0.46001 -13.13025,-7.1388 -26.2583,-14.28577 -39.38101,-21.42458 -0.22232,-0.12026 -0.44526,-0.23047 -0.66851,-0.34697 -0.0835,-0.0367 -0.17176,-0.0675 -0.25151,-0.10676 -0.36801,-0.16548 -0.73728,-0.32876 -1.11,-0.47602 -0.15103,-0.0575 -0.29579,-0.11901 -0.44274,-0.17773 -0.52375,-0.19028 -1.05975,-0.35576 -1.60705,-0.49926 -0.008,0 -0.0245,-0.01 -0.0367,-0.0122 -0.0823,-0.022 -0.16422,-0.0308 -0.24147,-0.0528 -0.44776,-0.10676 -0.89553,-0.19625 -1.35554,-0.27223 -0.184,-0.0345 -0.37397,-0.0528 -0.56426,-0.0798 -0.37774,-0.0468 -0.75799,-0.0895 -1.14296,-0.12026 -0.2063,-0.0122 -0.41228,-0.0245 -0.61701,-0.0308 -0.39878,-0.0207 -0.79976,-0.0207 -1.202,-0.008 -0.19028,0.003 -0.37428,0.003 -0.56425,0.0122 -0.59252,0.0308 -1.18598,0.0798 -1.78478,0.1658 L 110.62205,424.7331 c -0.67463,0.0983 -1.33698,0.2333 -2.00053,0.3925 -0.18278,0.043 -0.3643,0.0958 -0.54827,0.1413 -0.50903,0.13847 -1.00581,0.29171 -1.50256,0.46346 -0.16312,0.0553 -0.3275,0.11053 -0.48695,0.1658 -0.6047,0.2267 -1.19958,0.46597 -1.78221,0.7357 -0.0306,0.0185 -0.0552,0.0333 -0.0858,0.0493 -0.16803,0.0797 -0.33363,0.17772 -0.50291,0.25999 -0.47222,0.23896 -0.94074,0.4845 -1.40072,0.75423 -0.2306,0.13502 -0.4575,0.29202 -0.68443,0.43552 -0.2907,0.18149 -0.58508,0.35325 -0.87085,0.54573 -0.0613,0.049 -0.12265,0.10802 -0.18645,0.15323 -0.807079,0.56803 -1.577354,1.18127 -2.321881,1.83754 -0.04292,0.0367 -0.092,0.07 -0.138599,0.10424 -0.118975,0.11053 -0.220774,0.23927 -0.339749,0.352 -0.543378,0.50648 -1.06958,1.03652 -1.576158,1.58602 -0.104248,0.11649 -0.220773,0.21446 -0.322572,0.33127 -0.08217,0.0942 -0.155776,0.20473 -0.239175,0.29673 -0.545827,0.63522 -1.063426,1.29399 -1.554052,1.97224 -0.0552,0.0823 -0.128803,0.15323 -0.184004,0.23926 -0.01473,0.0182 -0.02452,0.0392 -0.0368,0.0575 -0.570351,0.81954 -1.091623,1.67425 -1.576126,2.55502 -0.0552,0.0983 -0.1202,0.19028 -0.17785,0.28825 -0.141049,0.26627 -0.269852,0.54825 -0.404778,0.82425 -0.118969,0.2355 -0.242851,0.47226 -0.352017,0.71153 -0.230593,0.5002 -0.441563,1.00574 -0.641494,1.51474 -0.07114,0.17772 -0.14964,0.35325 -0.218328,0.53097 -0.01472,0.0333 -0.02698,0.0663 -0.03925,0.0983 -0.141055,0.38873 -0.255125,0.78123 -0.376555,1.1775 -0.104258,0.32122 -0.222008,0.64401 -0.314001,0.97497 -0.118975,0.444 -0.210968,0.9015 -0.317681,1.35177 -0.06746,0.31651 -0.15332,0.63177 -0.214648,0.95299 -0.09567,0.50429 -0.154548,1.01328 -0.215875,1.52228 -0.0368,0.27601 -0.08831,0.55201 -0.115298,0.82802 -0.07482,0.79348 -0.11407,1.59073 -0.11775,2.39174 L 88.534096,581.952 c -0.01472,8.34299 4.047657,15.12962 10.149819,18.4438 13.127925,7.14106 26.254785,14.28335 39.385035,21.42563 -0.0835,-0.0405 -0.15103,-0.0993 -0.22451,-0.14473 3.4135,1.9257 7.47353,2.76345 11.83154,2.14894 l 121.02401,-17.00878 c 11.98478,-1.68653 21.80577,-13.63573 21.83027,-26.57585 l 0.24178,-130.62332 c 0.0182,-8.78197 -4.49178,-15.83851 -11.13604,-18.94429"
         id="path2908"
         style="fill:#ee2a3b;fill-opacity:1;fill-rule:nonzero;stroke:none" />
      <path
         d="m 141.30937,538.68705 c -14.46099,0 -20.96677,-7.23081 -20.96677,-16.62853 l 0.72346,-0.72503 8.67207,0 0.7222,0.72503 c 0,5.062 2.89477,7.9505 11.57406,7.9505 6.50673,0 10.11773,-2.16724 10.11773,-6.50704 0,-5.05949 -2.8932,-6.50672 -13.01375,-7.95175 -10.12527,-1.44597 -18.07231,-5.06075 -18.07231,-15.18256 0,-7.23049 5.78232,-13.73753 19.51985,-13.73753 13.73753,0 19.52079,6.50704 19.52079,15.18256 l -0.72251,0.72252 -8.6793,0 -0.72377,-0.72252 c 0,-4.33823 -2.16346,-6.50578 -10.11773,-6.50578 -6.50829,0 -8.67929,2.16755 -8.67929,5.06075 0,4.33729 2.89603,5.78326 13.01376,7.22829 10.12558,1.44849 18.07482,5.78578 18.07482,15.90602 0,7.95426 -5.78452,15.18507 -20.96331,15.18507"
         id="path2910"
         style="fill:#ffffff;fill-opacity:1;fill-rule:nonzero;stroke:none" />
      <path
         d="m 193.35246,496.02818 -13.73753,0 -0.7222,0.72377 0,11.56904 0.7222,0.72346 13.73753,0 c 4.33729,0 7.23206,-1.44849 7.23206,-6.50923 0,-5.06075 -2.89477,-6.50704 -7.23206,-6.50704 z m 0,21.69054 -13.73753,0 -0.7222,0.72377 0,18.79702 -0.72377,0.72377 -8.67929,0 -0.7222,-0.72377 0,-49.16434 0.7222,-0.72126 23.86279,0 c 10.12055,0 17.34979,5.06075 17.34979,15.18131 0,10.12275 -7.22924,15.1835 -17.34979,15.1835"
         id="path2912"
         style="fill:#ffffff;fill-opacity:1;fill-rule:nonzero;stroke:none" />
    </g>
  </g>
</svg>
